<svg width="450" height="555" viewBox="0 0 450 555" fill="none" xmlns="http://www.w3.org/2000/svg">
<path d="M296.08 179.627C298.282 202.148 299.469 226.121 299.469 250.99C299.469 275.488 298.317 299.118 296.177 321.347M282.285 403.311C268.809 455.068 248.598 487.967 226.004 487.967C185.431 487.966 152.539 381.869 152.539 250.99C152.539 120.111 185.431 14.0125 226.004 14.0125C248.702 14.0125 268.996 47.2157 282.472 99.3875" stroke="white" stroke-width="5" stroke-miterlimit="15.4" stroke-linejoin="round"/>
<path d="M331.5 125.922C382.598 112.031 420.767 113.162 431.973 132.501C452.26 167.513 376.49 248.944 262.737 314.383C148.984 379.823 40.323 404.489 20.036 369.478C8.77901 350.051 27.097 316.332 65.067 278.984M129.416 225.864C147.761 212.818 167.842 199.923 189.272 187.595C210.484 175.392 231.519 164.607 251.837 155.363" stroke="white" stroke-width="5" stroke-miterlimit="15.4" stroke-linejoin="round"/>
<path d="M130.79 277.089C148.762 289.802 168.376 302.362 189.272 314.383C210.975 326.869 232.494 337.87 253.248 347.256M330.362 375.622C381.055 389.283 420.826 388.715 431.973 369.478C452.26 334.467 376.49 253.034 262.737 187.595C148.984 122.156 40.323 97.4894 20.036 132.501C8.66502 152.125 27.472 186.332 66.229 224.134" stroke="white" stroke-width="5" stroke-miterlimit="15.4" stroke-linejoin="round"/>
<path d="M96.451 291.566C118.941 291.566 137.173 273.399 137.173 250.99C137.173 228.58 118.941 210.413 96.451 210.413C73.96 210.413 55.728 228.58 55.728 250.99C55.728 273.399 73.96 291.566 96.451 291.566Z" stroke="white" stroke-width="6" stroke-miterlimit="15.4" stroke-linecap="round" stroke-linejoin="round"/>
<path d="M290.781 179.773C313.271 179.773 331.503 161.605 331.503 139.196C331.503 116.786 313.271 98.6193 290.781 98.6193C268.29 98.6193 250.058 116.786 250.058 139.196C250.058 161.605 268.29 179.773 290.781 179.773Z" stroke="white" stroke-width="6" stroke-miterlimit="15.4" stroke-linecap="round" stroke-linejoin="round"/>
<path d="M329.794 377.614C324.024 392.635 309.759 403.498 292.882 404.334L293.566 402.232C309.045 401.169 322.043 391.305 327.587 377.612L329.794 377.614ZM253.962 377.595C259.5 391.288 272.498 401.156 287.97 402.231L288.653 404.333C271.782 403.484 257.52 392.614 251.755 377.593L253.962 377.595ZM316.94 330.378C326.445 338.01 332.537 349.7 332.537 362.785C332.537 366.553 332.028 370.205 331.082 373.678L329.291 372.376C330.056 369.305 330.465 366.092 330.465 362.785C330.465 350.586 324.949 339.694 316.267 332.446L316.94 330.378ZM265.3 332.437C256.612 339.686 251.093 350.583 251.093 362.785C251.093 366.083 251.496 369.288 252.258 372.354L250.467 373.655C249.524 370.189 249.018 366.544 249.018 362.785C249.018 349.698 255.117 338.006 264.629 330.374L265.3 332.437ZM290.785 321.182C299.158 321.182 306.961 323.651 313.504 327.894L311.74 329.174C305.661 325.406 298.48 323.232 290.785 323.232C283.09 323.232 275.906 325.404 269.826 329.171L268.064 327.891C274.608 323.649 282.413 321.182 290.785 321.182Z" fill="white" stroke="white" stroke-width="4"/>
<path d="M291.389 400.447C291.389 400.447 291.388 400.446 291.387 400.443L291.386 400.439C291.387 400.443 291.389 400.447 291.389 400.447ZM289.073 393.309C289.072 393.311 289.071 393.313 289.07 393.315C289.073 393.327 289.078 393.343 289.079 393.347C289.08 393.349 289.081 393.352 289.081 393.354C289.082 393.357 289.083 393.361 289.084 393.364C289.088 393.376 289.096 393.399 289.106 393.429C289.126 393.492 289.159 393.594 289.207 393.745C289.305 394.046 289.464 394.535 289.698 395.255L290.766 398.549L290.768 398.54C290.79 398.607 290.812 398.674 290.833 398.74L290.768 398.941L278.795 362.072L278.905 361.992C284.067 377.892 287.225 387.617 289.073 393.309ZM297.791 377.328L292.016 395.1C291.995 395.035 291.973 394.969 291.952 394.903L297.666 377.328H297.791ZM325.026 374.077L286.27 374.066L286.227 373.932L321.186 373.944L324.633 373.945L321.849 371.92L306.604 360.831L306.642 360.713L325.026 374.077ZM288.003 351.357L259.7 371.907L256.91 373.931L260.361 373.932H279.206L279.249 374.066L256.533 374.055L287.905 351.286L288.003 351.357ZM299.961 370.669H299.836L310.65 337.438L311.717 334.157L308.919 336.187L293.668 347.253L293.561 347.175L311.948 333.829L299.961 370.669ZM300.974 356.598L300.936 356.714L272.653 336.165L269.854 334.132L270.921 337.414L276.746 355.348L276.637 355.427L269.62 333.816L300.974 356.598Z" fill="black" stroke="white" stroke-width="2.24795"/>
<path d="M65.067 278.984L74.063 271.432L83.498 277.95L82.404 266.313L102.05 278.067L76.674 243.305L93.887 255.446C95.816 252.263 94.553 250.216 99.959 245.879C105.311 244.26 116.155 254.825 125.397 259.753L95.302 223.061C105.539 225.688 117.029 237.111 121.892 232.075L129.416 225.864" stroke="white" stroke-miterlimit="15.4" stroke-linecap="round" stroke-linejoin="round"/>
<path d="M225.999 291.564C248.49 291.564 266.722 273.398 266.722 250.988C266.722 228.579 248.49 210.412 225.999 210.412C203.508 210.412 185.276 228.579 185.276 250.988C185.276 273.398 203.508 291.564 225.999 291.564Z" stroke="white" stroke-width="4" stroke-miterlimit="15.4" stroke-linecap="round" stroke-linejoin="round"/>
<path d="M225.999 250.991C226.093 251.281 225.986 251.953 226.281 251.861C226.57 251.764 225.999 251.296 225.999 250.991ZM225.999 250.991C225.999 248.543 226.215 246.098 226.281 243.65C226.459 236.973 226.281 230.264 226.281 223.583" stroke="white" stroke-miterlimit="15.4" stroke-linecap="round" stroke-linejoin="round"/>
<path fill-rule="evenodd" clip-rule="evenodd" d="M225.72 251.508C225.636 251.674 225.305 251.923 225.467 252.008C225.628 252.093 225.59 251.641 225.72 251.508C226.76 250.439 227.888 249.462 228.954 248.421C231.865 245.579 234.64 242.572 237.478 239.652" fill="white"/>
<path d="M225.72 251.508C225.636 251.674 225.305 251.923 225.467 252.008C225.628 252.093 225.59 251.641 225.72 251.508ZM225.72 251.508C226.76 250.439 227.888 249.462 228.954 248.421C231.865 245.579 234.64 242.572 237.478 239.652" stroke="white" stroke-miterlimit="15.4" stroke-linecap="round" stroke-linejoin="round"/>
<path d="M290.781 159.304C274.575 143.394 283.366 126.928 290.781 119.069M290.781 159.304V119.069M290.781 159.304C306.987 143.394 298.195 126.928 290.781 119.069" stroke="white" stroke-miterlimit="15" stroke-linecap="round" stroke-linejoin="round"/>
<path d="M285.87 153.401C277.294 159.818 261.131 148.54 257.741 142.326C266.926 148.156 275.692 141.778 282.946 147.54M295.692 153.401C304.268 159.818 320.431 148.54 323.821 142.326C314.636 148.156 305.87 141.778 298.616 147.54" stroke="white" stroke-miterlimit="6.4" stroke-linecap="round" stroke-linejoin="round"/>
<path d="M289.328 157.805C285.859 162.924 276.713 159.482 276.819 155.437M292.234 157.805C295.703 162.924 304.849 159.482 304.743 155.437" stroke="white" stroke-miterlimit="6.4" stroke-linecap="round" stroke-linejoin="round"/>
<path d="M274.371 154.889C270.501 160.659 261.3 157.709 259.659 154.218C262.85 153.501 264.385 152.681 266.202 150.474M307.191 154.889C311.06 160.659 320.261 157.709 321.903 154.218C318.711 153.501 317.177 152.681 315.36 150.474" stroke="white" stroke-miterlimit="6.4" stroke-linecap="round" stroke-linejoin="round"/>
<path d="M286.62 124.365C284.675 120.437 281.969 119.323 279.649 117.802C274.746 124.791 274.05 139.174 281.714 142.611M294.942 124.365C296.886 120.437 299.593 119.323 301.913 117.802C306.816 124.791 307.512 139.174 299.848 142.611" stroke="white" stroke-miterlimit="6.4" stroke-linecap="round" stroke-linejoin="round"/>
<path d="M277.004 145.08C271.338 141.727 263.931 135.571 265.7 125.842C269.35 129.081 272.636 131.586 276.146 133.65M304.558 145.08C310.223 141.727 317.63 135.571 315.861 125.842C312.211 129.081 308.926 131.586 305.416 133.65" stroke="white" stroke-miterlimit="6.4" stroke-linecap="round" stroke-linejoin="round"/>
<path d="M268.156 137.275C265.662 136.304 263.693 135.04 260.553 132.838C260.32 137.204 260.783 140.13 263.742 144.662M313.406 137.275C315.9 136.304 317.868 135.04 321.008 132.838C321.242 137.204 320.778 140.13 317.82 144.662" stroke="white" stroke-miterlimit="6.4" stroke-linecap="round" stroke-linejoin="round"/>
<path d="M94.008 475.286V452.966H97.432L111.48 470.152H109.784V452.966H113.912V475.286H110.488L96.44 458.1H98.136V475.286H94.008ZM135.658 452.966H139.818V475.286H135.658V452.966ZM124.074 475.286H119.914V452.966H124.074V475.286ZM135.978 465.72H123.722V462.181H135.978V465.72ZM142.652 475.286L152.733 452.966H156.829L166.941 475.286H162.589L153.917 455.166H155.581L146.941 475.286H142.652ZM147.293 470.12L148.413 466.868H160.509L161.628 470.12H147.293Z" fill="white"/>
<path d="M294.008 475.286V452.966H303.8C306.232 452.966 308.365 453.434 310.2 454.369C312.035 455.305 313.464 456.601 314.488 458.259C315.512 459.917 316.024 461.873 316.024 464.126C316.024 466.358 315.512 468.314 314.488 469.993C313.464 471.651 312.035 472.947 310.2 473.883C308.365 474.818 306.232 475.286 303.8 475.286H294.008ZM298.168 471.778H303.608C305.293 471.778 306.744 471.46 307.96 470.822C309.197 470.184 310.147 469.291 310.808 468.143C311.491 466.996 311.832 465.656 311.832 464.126C311.832 462.575 311.491 461.235 310.808 460.108C310.147 458.961 309.197 458.068 307.96 457.43C306.744 456.792 305.293 456.474 303.608 456.474H298.168V471.778ZM324.286 462.245H335.422V465.656H324.286V462.245ZM324.606 471.81H337.246V475.286H320.446V452.966H336.798V456.442H324.606V471.81ZM327.902 451.149L322.334 446.781H327.038L331.358 451.149H327.902ZM348.827 475.605C347.078 475.605 345.403 475.36 343.803 474.871C342.203 474.361 340.934 473.712 339.995 472.926L341.435 469.706C342.331 470.407 343.44 470.992 344.763 471.459C346.086 471.927 347.44 472.161 348.827 472.161C350 472.161 350.95 472.033 351.675 471.778C352.4 471.523 352.934 471.183 353.275 470.758C353.616 470.312 353.787 469.812 353.787 469.259C353.787 468.579 353.542 468.037 353.051 467.633C352.56 467.208 351.92 466.879 351.131 466.645C350.363 466.39 349.499 466.156 348.539 465.943C347.6 465.731 346.651 465.486 345.691 465.21C344.752 464.912 343.888 464.54 343.099 464.094C342.331 463.627 341.702 463.01 341.211 462.245C340.72 461.479 340.475 460.502 340.475 459.311C340.475 458.1 340.795 456.995 341.435 455.995C342.096 454.975 343.088 454.167 344.411 453.572C345.755 452.955 347.451 452.647 349.499 452.647C350.843 452.647 352.176 452.818 353.499 453.158C354.822 453.497 355.974 453.987 356.955 454.624L355.643 457.845C354.64 457.25 353.606 456.813 352.539 456.537C351.472 456.239 350.448 456.091 349.467 456.091C348.315 456.091 347.376 456.229 346.651 456.505C345.947 456.781 345.424 457.143 345.083 457.59C344.763 458.036 344.603 458.546 344.603 459.12C344.603 459.801 344.838 460.353 345.307 460.778C345.798 461.182 346.427 461.5 347.195 461.735C347.984 461.969 348.859 462.202 349.819 462.436C350.779 462.648 351.728 462.893 352.667 463.169C353.627 463.445 354.491 463.807 355.259 464.253C356.048 464.7 356.678 465.306 357.147 466.071C357.638 466.836 357.883 467.804 357.883 468.972C357.883 470.163 357.552 471.268 356.891 472.289C356.251 473.288 355.259 474.095 353.915 474.712C352.571 475.307 350.875 475.605 348.827 475.605Z" fill="white"/>
<path d="M152.648 539.056V516.736H161.032C162.931 516.736 164.563 517.044 165.928 517.661C167.293 518.256 168.339 519.128 169.064 520.275C169.811 521.402 170.184 522.773 170.184 524.389C170.184 525.962 169.811 527.322 169.064 528.47C168.339 529.597 167.293 530.468 165.928 531.084C164.563 531.679 162.931 531.977 161.032 531.977H153.96L155.016 530.893V539.056H152.648ZM167.944 539.056L162.184 530.957H164.744L170.536 539.056H167.944ZM155.016 531.084L153.96 529.968H160.968C163.208 529.968 164.904 529.479 166.056 528.502C167.229 527.524 167.816 526.153 167.816 524.389C167.816 522.603 167.229 521.221 166.056 520.244C164.904 519.266 163.208 518.777 160.968 518.777H153.96L155.016 517.661V531.084ZM177.885 526.716H189.725V528.725H177.885V526.716ZM178.141 537.015H191.613V539.056H175.773V516.736H191.133V518.777H178.141V537.015ZM206.845 539.247C205.159 539.247 203.602 538.971 202.173 538.418C200.743 537.844 199.506 537.047 198.461 536.027C197.415 535.006 196.594 533.806 195.997 532.424C195.421 531.042 195.133 529.533 195.133 527.896C195.133 526.259 195.421 524.75 195.997 523.368C196.594 521.986 197.415 520.786 198.461 519.765C199.527 518.745 200.775 517.959 202.205 517.406C203.634 516.832 205.191 516.545 206.877 516.545C208.498 516.545 210.023 516.821 211.453 517.374C212.882 517.905 214.087 518.713 215.069 519.797L213.565 521.296C212.647 520.36 211.634 519.691 210.525 519.287C209.415 518.862 208.221 518.649 206.941 518.649C205.597 518.649 204.349 518.883 203.197 519.351C202.045 519.797 201.042 520.446 200.189 521.296C199.335 522.125 198.663 523.102 198.173 524.229C197.703 525.334 197.469 526.557 197.469 527.896C197.469 529.235 197.703 530.468 198.173 531.595C198.663 532.7 199.335 533.678 200.189 534.528C201.042 535.357 202.045 536.006 203.197 536.473C204.349 536.919 205.597 537.143 206.941 537.143C208.221 537.143 209.415 536.93 210.525 536.505C211.634 536.079 212.647 535.4 213.565 534.464L215.069 535.963C214.087 537.047 212.882 537.865 211.453 538.418C210.023 538.971 208.487 539.247 206.845 539.247ZM229.44 539.247C227.755 539.247 226.187 538.971 224.736 538.418C223.307 537.844 222.059 537.047 220.992 536.027C219.947 534.985 219.125 533.784 218.528 532.424C217.952 531.042 217.664 529.533 217.664 527.896C217.664 526.259 217.952 524.76 218.528 523.4C219.125 522.018 219.947 520.817 220.992 519.797C222.059 518.756 223.307 517.959 224.736 517.406C226.165 516.832 227.733 516.545 229.44 516.545C231.125 516.545 232.683 516.832 234.112 517.406C235.541 517.959 236.779 518.745 237.824 519.765C238.891 520.786 239.712 521.986 240.288 523.368C240.885 524.75 241.184 526.259 241.184 527.896C241.184 529.533 240.885 531.042 240.288 532.424C239.712 533.806 238.891 535.006 237.824 536.027C236.779 537.047 235.541 537.844 234.112 538.418C232.683 538.971 231.125 539.247 229.44 539.247ZM229.44 537.143C230.784 537.143 232.021 536.919 233.152 536.473C234.304 536.006 235.296 535.357 236.128 534.528C236.981 533.678 237.643 532.7 238.112 531.595C238.581 530.468 238.816 529.235 238.816 527.896C238.816 526.557 238.581 525.334 238.112 524.229C237.643 523.102 236.981 522.125 236.128 521.296C235.296 520.446 234.304 519.797 233.152 519.351C232.021 518.883 230.784 518.649 229.44 518.649C228.096 518.649 226.848 518.883 225.696 519.351C224.544 519.797 223.541 520.446 222.688 521.296C221.856 522.125 221.195 523.102 220.704 524.229C220.235 525.334 220 526.557 220 527.896C220 529.214 220.235 530.436 220.704 531.563C221.195 532.69 221.856 533.678 222.688 534.528C223.541 535.357 224.544 536.006 225.696 536.473C226.848 536.919 228.096 537.143 229.44 537.143ZM246.492 539.056V516.736H254.876C256.774 516.736 258.406 517.044 259.772 517.661C261.137 518.256 262.182 519.128 262.908 520.275C263.654 521.402 264.028 522.773 264.028 524.389C264.028 525.962 263.654 527.322 262.908 528.47C262.182 529.597 261.137 530.468 259.772 531.084C258.406 531.679 256.774 531.977 254.876 531.977H247.804L248.86 530.893V539.056H246.492ZM261.788 539.056L256.028 530.957H258.588L264.38 539.056H261.788ZM248.86 531.084L247.804 529.968H254.812C257.052 529.968 258.748 529.479 259.9 528.502C261.073 527.524 261.66 526.153 261.66 524.389C261.66 522.603 261.073 521.221 259.9 520.244C258.748 519.266 257.052 518.777 254.812 518.777H247.804L248.86 517.661V531.084ZM269.617 539.056V516.736H278.737C281.126 516.736 283.217 517.214 285.009 518.171C286.822 519.107 288.23 520.414 289.233 522.093C290.235 523.772 290.737 525.707 290.737 527.896C290.737 530.085 290.235 532.02 289.233 533.699C288.23 535.378 286.822 536.696 285.009 537.653C283.217 538.588 281.126 539.056 278.737 539.056H269.617ZM271.985 537.015H278.609C280.593 537.015 282.31 536.632 283.761 535.867C285.233 535.081 286.374 534.007 287.185 532.647C287.995 531.265 288.401 529.682 288.401 527.896C288.401 526.089 287.995 524.505 287.185 523.145C286.374 521.785 285.233 520.722 283.761 519.957C282.31 519.17 280.593 518.777 278.609 518.777H271.985V537.015ZM302.23 539.247C300.566 539.247 298.966 538.981 297.43 538.45C295.916 537.897 294.742 537.195 293.91 536.346L294.838 534.528C295.628 535.293 296.684 535.942 298.006 536.473C299.35 536.983 300.758 537.238 302.23 537.238C303.638 537.238 304.78 537.068 305.654 536.728C306.55 536.366 307.201 535.888 307.606 535.293C308.033 534.698 308.246 534.039 308.246 533.316C308.246 532.445 307.99 531.743 307.478 531.212C306.988 530.681 306.337 530.266 305.526 529.968C304.716 529.65 303.82 529.374 302.838 529.139C301.857 528.905 300.876 528.661 299.894 528.406C298.913 528.13 298.006 527.768 297.174 527.322C296.364 526.876 295.702 526.291 295.19 525.568C294.7 524.824 294.454 523.858 294.454 522.667C294.454 521.562 294.742 520.551 295.318 519.638C295.916 518.702 296.822 517.959 298.038 517.406C299.254 516.832 300.812 516.545 302.71 516.545C303.969 516.545 305.217 516.725 306.454 517.087C307.692 517.427 308.758 517.905 309.654 518.522L308.854 520.403C307.894 519.765 306.87 519.298 305.782 519C304.716 518.702 303.681 518.554 302.678 518.554C301.334 518.554 300.225 518.734 299.35 519.096C298.476 519.457 297.825 519.946 297.398 520.562C296.993 521.157 296.79 521.838 296.79 522.603C296.79 523.475 297.036 524.176 297.526 524.707C298.038 525.239 298.7 525.653 299.51 525.951C300.342 526.249 301.249 526.514 302.23 526.748C303.212 526.982 304.182 527.237 305.142 527.513C306.124 527.789 307.02 528.151 307.83 528.597C308.662 529.023 309.324 529.597 309.814 530.319C310.326 531.042 310.582 531.988 310.582 533.157C310.582 534.241 310.284 535.25 309.686 536.186C309.089 537.1 308.172 537.844 306.934 538.418C305.718 538.971 304.15 539.247 302.23 539.247Z" fill="white"/>
</svg>
