<svg width="250" height="250" viewBox="0 0 250 250" fill="none" xmlns="http://www.w3.org/2000/svg">
<g clip-path="url(#clip0_3_2)">
<g clip-path="url(#clip1_3_2)">
<path d="M71.3026 243.844L63.3555 237.94H65.7102C67.1623 237.94 68.3396 237.826 69.2423 237.598C69.9094 237.406 70.4883 237.118 70.9789 236.734C71.4694 236.338 71.7147 235.906 71.7147 235.438C71.7147 235.018 71.5087 234.622 71.0966 234.25C70.6845 233.866 70.0958 233.554 69.3306 233.314C68.5653 233.074 67.6823 232.954 66.6815 232.954H61.3245V243.844H60V232.144H66.6815C67.5841 232.144 68.4279 232.234 69.2128 232.414C69.9977 232.582 70.6845 232.828 71.2732 233.152C71.8423 233.464 72.274 233.818 72.5683 234.214C72.8823 234.61 73.0392 235.018 73.0392 235.438C73.0392 236.098 72.7155 236.692 72.0679 237.22C71.4204 237.736 70.6551 238.108 69.7721 238.336C69.1638 238.504 68.5653 238.612 67.9766 238.66C67.4075 238.696 66.7992 238.714 66.1517 238.714L73.0687 243.844H71.3026ZM90.5867 243.844H78.195V232.144H90.5867V232.972H79.5195V237.58H88.1436V238.408H79.5195V242.998H90.5867V243.844ZM108.271 243.394C106.956 243.778 105.563 243.97 104.091 243.97C102.345 243.97 100.726 243.7 99.2344 243.16C97.743 242.62 96.5657 241.894 95.7023 240.982C94.8389 240.058 94.4072 239.056 94.4072 237.976C94.4072 236.896 94.8389 235.9 95.7023 234.988C96.5657 234.076 97.743 233.35 99.2344 232.81C100.726 232.27 102.345 232 104.091 232C105.445 232 106.74 232.174 107.976 232.522C109.232 232.858 110.331 233.338 111.273 233.962L110.243 234.52C109.458 233.98 108.526 233.56 107.446 233.26C106.387 232.96 105.268 232.81 104.091 232.81C102.58 232.81 101.187 233.044 99.9113 233.512C98.6359 233.968 97.6155 234.592 96.8502 235.384C96.1046 236.176 95.7317 237.04 95.7317 237.976C95.7317 238.912 96.1046 239.776 96.8502 240.568C97.6155 241.36 98.6359 241.99 99.9113 242.458C101.187 242.914 102.58 243.142 104.091 243.142C105.347 243.142 106.534 242.974 107.652 242.638C108.791 242.302 109.762 241.834 110.566 241.234L111.626 241.738C110.704 242.446 109.585 242.998 108.271 243.394ZM129.385 243.178C127.893 243.706 126.274 243.97 124.528 243.97C122.782 243.97 121.163 243.706 119.671 243.178C118.18 242.638 117.003 241.912 116.139 241C115.276 240.076 114.844 239.074 114.844 237.994C114.844 236.914 115.276 235.918 116.139 235.006C117.003 234.082 118.18 233.356 119.671 232.828C121.163 232.288 122.782 232.018 124.528 232.018C126.274 232.018 127.893 232.288 129.385 232.828C130.876 233.356 132.053 234.082 132.917 235.006C133.78 235.918 134.212 236.914 134.212 237.994C134.212 239.074 133.78 240.076 132.917 241C132.053 241.912 130.876 242.638 129.385 243.178ZM128.708 233.548C127.432 233.08 126.039 232.846 124.528 232.846C123.017 232.846 121.624 233.08 120.348 233.548C119.073 234.004 118.052 234.628 117.287 235.42C116.542 236.2 116.169 237.058 116.169 237.994C116.169 238.93 116.542 239.794 117.287 240.586C118.052 241.366 119.073 241.99 120.348 242.458C121.624 242.914 123.017 243.142 124.528 243.142C126.039 243.142 127.432 242.914 128.708 242.458C129.983 241.99 130.994 241.366 131.739 240.586C132.485 239.794 132.858 238.93 132.858 237.994C132.858 237.058 132.485 236.2 131.739 235.42C130.994 234.628 129.983 234.004 128.708 233.548ZM149.774 243.844L141.827 237.94H144.182C145.634 237.94 146.811 237.826 147.714 237.598C148.381 237.406 148.96 237.118 149.45 236.734C149.941 236.338 150.186 235.906 150.186 235.438C150.186 235.018 149.98 234.622 149.568 234.25C149.156 233.866 148.567 233.554 147.802 233.314C147.037 233.074 146.154 232.954 145.153 232.954H139.796V243.844H138.471V232.144H145.153C146.056 232.144 146.899 232.234 147.684 232.414C148.469 232.582 149.156 232.828 149.745 233.152C150.314 233.464 150.745 233.818 151.04 234.214C151.354 234.61 151.511 235.018 151.511 235.438C151.511 236.098 151.187 236.692 150.539 237.22C149.892 237.736 149.127 238.108 148.244 238.336C147.635 238.504 147.037 238.612 146.448 238.66C145.879 238.696 145.271 238.714 144.623 238.714L151.54 243.844H149.774ZM165.938 243.394C164.78 243.694 163.525 243.844 162.171 243.844H156.666V232.144H162.171C163.525 232.144 164.78 232.3 165.938 232.612C167.096 232.912 168.097 233.344 168.94 233.908C169.745 234.448 170.363 235.066 170.795 235.762C171.226 236.458 171.442 237.196 171.442 237.976C171.442 238.756 171.226 239.494 170.795 240.19C170.363 240.886 169.745 241.51 168.94 242.062C168.097 242.638 167.096 243.082 165.938 243.394ZM157.991 232.972V243.034H162.171C164.545 243.034 166.478 242.524 167.969 241.504C168.656 241.048 169.176 240.52 169.529 239.92C169.902 239.308 170.088 238.66 170.088 237.976C170.088 237.304 169.902 236.668 169.529 236.068C169.176 235.456 168.656 234.922 167.969 234.466C166.458 233.47 164.525 232.972 162.171 232.972H157.991ZM186.343 238.174C187.245 238.486 187.942 238.87 188.433 239.326C188.943 239.77 189.198 240.25 189.198 240.766C189.198 241.21 189.021 241.636 188.668 242.044C188.315 242.44 187.805 242.788 187.138 243.088C185.764 243.688 184.165 243.988 182.34 243.988C181.437 243.988 180.574 243.91 179.749 243.754C178.925 243.598 178.189 243.376 177.542 243.088C176.423 242.584 175.746 241.966 175.511 241.234L176.777 240.802C176.835 241.462 177.365 242.002 178.366 242.422C178.876 242.662 179.475 242.848 180.161 242.98C180.848 243.1 181.574 243.16 182.34 243.16C183.91 243.16 185.234 242.914 186.313 242.422C187.353 241.954 187.873 241.402 187.873 240.766C187.873 240.394 187.677 240.046 187.285 239.722C186.912 239.398 186.382 239.122 185.695 238.894C185.048 238.69 183.89 238.528 182.222 238.408C182.084 238.396 181.584 238.348 180.721 238.264C179.877 238.18 179.151 238.048 178.543 237.868C177.581 237.58 176.826 237.202 176.276 236.734C175.727 236.254 175.452 235.738 175.452 235.186C175.452 234.742 175.629 234.328 175.982 233.944C176.355 233.548 176.875 233.2 177.542 232.9C178.189 232.612 178.925 232.39 179.749 232.234C180.574 232.078 181.437 232 182.34 232C184.165 232 185.764 232.3 187.138 232.9C188.276 233.428 188.943 234.04 189.139 234.736L187.873 235.168C187.854 234.868 187.707 234.58 187.432 234.304C187.177 234.028 186.804 233.776 186.313 233.548C185.784 233.308 185.175 233.128 184.488 233.008C183.802 232.876 183.085 232.81 182.34 232.81C181.594 232.81 180.868 232.876 180.161 233.008C179.475 233.128 178.876 233.308 178.366 233.548C177.856 233.776 177.463 234.034 177.189 234.322C176.914 234.598 176.777 234.886 176.777 235.186C176.777 235.558 177.002 235.93 177.454 236.302C177.905 236.662 178.464 236.944 179.131 237.148C179.543 237.268 179.995 237.358 180.485 237.418C180.995 237.466 181.643 237.52 182.428 237.58C182.565 237.592 182.909 237.622 183.458 237.67C184.008 237.718 184.538 237.784 185.048 237.868C185.558 237.952 185.99 238.054 186.343 238.174Z" fill="white"/>
</g>
<g clip-path="url(#clip2_3_2)">
<path d="M161.045 206.3V205.292H165.163C166.443 205.292 167.545 205.124 168.469 204.788C169.394 204.443 170.105 203.962 170.603 203.346C171.1 202.73 171.349 202.016 171.349 201.204C171.349 200.401 171.1 199.701 170.603 199.104C170.105 198.507 169.394 198.045 168.469 197.718C167.559 197.391 166.457 197.228 165.163 197.228H161.045V196.22H165.163C166.77 196.22 168.171 196.43 169.365 196.85C170.56 197.261 171.484 197.844 172.139 198.6C172.807 199.347 173.141 200.224 173.141 201.232C173.141 202.24 172.807 203.127 172.139 203.892C171.47 204.648 170.539 205.241 169.344 205.67C168.164 206.09 166.777 206.3 165.184 206.3H161.045ZM160 206.3V196.22H161.749V206.3H160ZM180.308 206.3V196.22H182.058V206.3H180.308ZM181.204 206.3V205.292H190.591V206.3H181.204ZM181.204 201.554V200.546H189.823V201.554H181.204ZM181.204 197.228V196.22H190.42V197.228H181.204ZM185.578 195.198L182.164 193H184.788L187.199 195.198H185.578ZM202.468 206.426C200.676 206.426 199.246 206.137 198.18 205.558C197.127 204.979 196.509 204.153 196.324 203.08H198.03C198.187 203.855 198.635 204.438 199.374 204.83C200.114 205.222 201.138 205.418 202.446 205.418C203.556 205.418 204.388 205.283 204.942 205.012C205.511 204.732 205.796 204.326 205.796 203.794C205.796 203.337 205.604 202.973 205.22 202.702C204.836 202.431 204.238 202.207 203.428 202.03L200.846 201.442C199.538 201.143 198.571 200.784 197.945 200.364C197.319 199.935 197.006 199.393 197.006 198.74C197.006 198.199 197.213 197.732 197.625 197.34C198.038 196.939 198.621 196.626 199.374 196.402C200.128 196.178 201.003 196.066 201.998 196.066C203.534 196.066 204.765 196.332 205.689 196.864C206.614 197.387 207.147 198.133 207.289 199.104H205.582C205.398 198.404 205.014 197.891 204.43 197.564C203.862 197.237 203.037 197.074 201.956 197.074C200.932 197.074 200.135 197.209 199.566 197.48C198.998 197.751 198.713 198.133 198.713 198.628C198.713 199.048 198.912 199.384 199.31 199.636C199.709 199.888 200.327 200.107 201.166 200.294L203.918 200.924C205.113 201.195 206.009 201.563 206.606 202.03C207.204 202.487 207.502 203.071 207.502 203.78C207.502 204.62 207.062 205.273 206.18 205.74C205.312 206.197 204.075 206.426 202.468 206.426Z" fill="white"/>
</g>
<g clip-path="url(#clip3_3_2)">
<path d="M41 206.56V196H42.7L50.96 204.888L50.72 204.917V196H52.28V206.56H50.58L42.32 197.672L42.56 197.643V206.56H41ZM59.7266 206.56V196H61.3666V206.56H59.7266ZM69.3666 206.56V196H71.0066V206.56H69.3666ZM60.5666 200.532H70.0866V201.588H60.5666V200.532ZM77.4531 206.56L83.0131 196H84.4531L79.0331 206.56H77.4531ZM88.8931 206.56L83.4731 196H85.0131L90.5731 206.56H88.8931ZM80.2131 202.292H87.7331V203.348H80.2131V202.292Z" fill="white"/>
</g>
<g clip-path="url(#clip4_3_2)">
<path d="M158.269 79.8183C159.298 90.3869 159.854 101.637 159.854 113.307C159.854 124.804 159.315 135.893 158.314 146.325M151.819 184.789C145.517 209.077 136.066 224.516 125.502 224.516C106.53 224.516 91.1502 174.726 91.1502 113.307C91.1502 51.8885 106.53 2.09884 125.502 2.09882C136.115 2.0988 145.604 17.6806 151.906 42.1634" stroke="white" stroke-width="1.9963" stroke-miterlimit="15.4" stroke-linejoin="round"/>
<path d="M174.831 54.6157C198.724 48.0968 216.572 48.6275 221.811 57.703C231.297 74.1332 195.868 112.347 142.678 143.057C89.4877 173.766 38.6787 185.342 29.1927 168.911C23.9292 159.795 32.4942 143.971 50.2489 126.445M80.338 101.516C88.916 95.3944 98.3059 89.3429 108.326 83.5577C118.245 77.8312 128.08 72.7701 137.581 68.4318" stroke="white" stroke-width="1.9963" stroke-miterlimit="15.4" stroke-linejoin="round"/>
<path d="M80.9803 125.555C89.3841 131.521 98.5555 137.416 108.326 143.057C118.475 148.916 128.536 154.079 138.241 158.483M174.299 171.795C198.003 178.206 216.599 177.939 221.811 168.911C231.297 152.481 195.868 114.267 142.678 83.5577C89.4878 52.8484 38.6788 41.2728 29.1928 57.703C23.8759 66.9121 32.6696 82.965 50.7925 100.704" stroke="white" stroke-width="1.9963" stroke-miterlimit="15.4" stroke-linejoin="round"/>
<path d="M64.9237 132.349C75.4401 132.349 83.9653 123.824 83.9653 113.307C83.9653 102.791 75.4401 94.2656 64.9237 94.2656C54.4073 94.2656 45.882 102.791 45.882 113.307C45.882 123.824 54.4073 132.349 64.9237 132.349Z" stroke="white" stroke-width="1.9963" stroke-miterlimit="15.4" stroke-linecap="round" stroke-linejoin="round"/>
<path d="M155.791 79.8865C166.307 79.8865 174.833 71.3613 174.833 60.8449C174.833 50.3284 166.307 41.8032 155.791 41.8032C145.275 41.8032 136.749 50.3284 136.749 60.8449C136.749 71.3613 145.275 79.8865 155.791 79.8865Z" stroke="white" stroke-width="1.9963" stroke-miterlimit="15.4" stroke-linecap="round" stroke-linejoin="round"/>
<path fill-rule="evenodd" clip-rule="evenodd" d="M155.793 145.312C144.51 145.312 135.328 154.487 135.328 165.77C135.328 177.053 144.51 186.228 155.793 186.228C167.076 186.228 176.251 177.053 176.251 165.77C176.251 154.487 167.076 145.312 155.793 145.312ZM155.793 148.144C159.437 148.144 162.818 149.245 165.623 151.132L167.237 149.956L166.621 151.856C170.756 155.079 173.412 160.108 173.412 165.77C173.412 167.464 173.173 169.101 172.729 170.65L174.299 171.795L172.358 171.794C169.97 178.386 163.769 183.133 156.402 183.383L155.785 185.287L155.169 183.383C147.806 183.127 141.605 178.378 139.218 171.786L137.276 171.785L138.847 170.64C138.405 169.094 138.169 167.46 138.169 165.77C138.169 160.106 140.826 155.075 144.965 151.852L144.903 151.662L144.35 149.956L145.961 151.131C148.768 149.244 152.149 148.144 155.793 148.144Z" fill="white"/>
<path fill-rule="evenodd" clip-rule="evenodd" d="M144.898 150.798L148.901 163.17L149.846 162.481L147.005 153.703L160.816 163.774L161.175 162.667L144.898 150.798ZM166.688 150.804L156.199 158.445L157.141 159.132L164.582 153.714L159.303 169.996L160.466 169.996L166.688 150.804ZM154.447 159.724L138.164 171.585L151.122 171.59L150.761 170.476L141.567 170.476L155.385 160.408L154.447 159.724ZM162.931 163.947L162.573 165.053L170.008 170.481L152.939 170.476L153.3 171.59L173.417 171.596L162.931 163.947ZM150.515 164.547L149.57 165.236L155.785 184.444L159.792 172.07L158.628 172.07L155.785 180.847C154.034 175.432 161.304 197.894 150.515 164.547Z" fill="white"/>
<path d="M50.249 126.445L54.4553 122.901L58.8669 125.959L58.3557 120.499L67.5421 126.014L55.6765 109.701L63.7249 115.399C64.6272 113.905 64.0365 112.945 66.5642 110.909C69.0665 110.149 74.1373 115.107 78.4589 117.42L64.3864 100.201C69.1731 101.434 74.5462 106.794 76.8199 104.431L80.3381 101.516" stroke="white" stroke-width="0.798522" stroke-miterlimit="15.4" stroke-linecap="round" stroke-linejoin="round"/>
<path d="M125.5 132.348C136.016 132.348 144.541 123.823 144.541 113.307C144.541 102.79 136.016 94.265 125.5 94.265C114.983 94.265 106.458 102.79 106.458 113.307C106.458 123.823 114.983 132.348 125.5 132.348Z" stroke="white" stroke-width="1.9963" stroke-miterlimit="15.4" stroke-linecap="round" stroke-linejoin="round"/>
<path d="M125.5 113.308C125.543 113.444 125.493 113.76 125.631 113.716C125.766 113.671 125.5 113.451 125.5 113.308ZM125.5 113.308C125.5 112.159 125.601 111.012 125.631 109.863C125.715 106.73 125.631 103.582 125.631 100.446" stroke="white" stroke-width="0.798522" stroke-miterlimit="15.4" stroke-linecap="round" stroke-linejoin="round"/>
<path fill-rule="evenodd" clip-rule="evenodd" d="M125.369 113.551C125.33 113.629 125.175 113.745 125.251 113.785C125.326 113.825 125.308 113.613 125.369 113.551C125.855 113.049 126.383 112.591 126.881 112.102C128.242 110.768 129.54 109.357 130.867 107.987" fill="white"/>
<path d="M125.369 113.551C125.33 113.629 125.175 113.745 125.251 113.785C125.326 113.825 125.308 113.613 125.369 113.551ZM125.369 113.551C125.855 113.049 126.383 112.591 126.881 112.102C128.242 110.768 129.54 109.357 130.867 107.987" stroke="white" stroke-width="0.798522" stroke-miterlimit="15.4" stroke-linecap="round" stroke-linejoin="round"/>
<path fill-rule="evenodd" clip-rule="evenodd" d="M155.791 70.2812C148.213 62.815 152.324 55.0876 155.791 51.3994ZM155.791 70.2812C163.369 62.815 159.258 55.0876 155.791 51.3994Z" stroke="white" stroke-width="0.798518" stroke-miterlimit="15" stroke-linecap="round" stroke-linejoin="round"/>
<path d="M153.495 67.5107C149.485 70.5221 141.927 65.2301 140.342 62.3138C144.637 65.0496 148.736 62.0566 152.128 64.7603M158.087 67.5107C162.097 70.5221 169.655 65.2301 171.24 62.3138C166.946 65.0496 162.846 62.0566 159.455 64.7603" stroke="white" stroke-width="0.798518" stroke-miterlimit="6.4" stroke-linecap="round" stroke-linejoin="round"/>
<path d="M155.112 69.5774C153.49 71.98 149.213 70.3647 149.262 68.4666M156.47 69.5774C158.093 71.98 162.369 70.3647 162.32 68.4666" stroke="white" stroke-width="0.798518" stroke-miterlimit="6.4" stroke-linecap="round" stroke-linejoin="round"/>
<path d="M148.118 68.2096C146.308 70.9169 142.006 69.5328 141.239 67.8944C142.731 67.5579 143.448 67.1731 144.298 66.1376M163.464 68.2096C165.274 70.9169 169.576 69.5328 170.343 67.8944C168.851 67.5579 168.134 67.1731 167.284 66.1376" stroke="white" stroke-width="0.798518" stroke-miterlimit="6.4" stroke-linecap="round" stroke-linejoin="round"/>
<path d="M153.846 53.8852C152.936 52.0413 151.671 51.5187 150.586 50.8052C148.293 54.0847 147.968 60.8347 151.551 62.4472M157.737 53.8852C158.646 52.0413 159.912 51.5187 160.996 50.8052C163.289 54.0847 163.614 60.8347 160.031 62.4472" stroke="white" stroke-width="0.798518" stroke-miterlimit="6.4" stroke-linecap="round" stroke-linejoin="round"/>
<path d="M149.349 63.6061C146.7 62.0324 143.236 59.1437 144.064 54.5783C145.77 56.0981 147.307 57.2737 148.948 58.2424M162.233 63.6061C164.882 62.0324 168.346 59.1437 167.519 54.5783C165.812 56.0981 164.275 57.2737 162.634 58.2424" stroke="white" stroke-width="0.798518" stroke-miterlimit="6.4" stroke-linecap="round" stroke-linejoin="round"/>
<path d="M145.212 59.9435C144.046 59.4878 143.125 58.8943 141.657 57.8612C141.548 59.9102 141.764 61.2831 143.148 63.4103M166.37 59.9435C167.536 59.4878 168.457 58.8943 169.925 57.8612C170.034 59.9102 169.818 61.2831 168.434 63.4103" stroke="white" stroke-width="0.798518" stroke-miterlimit="6.4" stroke-linecap="round" stroke-linejoin="round"/>
</g>
</g>
<defs>
<clipPath id="clip0_3_2">
<rect width="250" height="250" fill="white"/>
</clipPath>
<clipPath id="clip1_3_2">
<rect width="130" height="12" fill="white" transform="translate(60 232)"/>
</clipPath>
<clipPath id="clip2_3_2">
<rect width="48" height="14" fill="white" transform="translate(160 193)"/>
</clipPath>
<clipPath id="clip3_3_2">
<rect width="50" height="11" fill="white" transform="translate(41 196)"/>
</clipPath>
<clipPath id="clip4_3_2">
<rect width="505" height="505" fill="white" transform="translate(-127 -134)"/>
</clipPath>
</defs>
</svg>
