<svg width="250" height="250" viewBox="0 0 250 250" fill="none" xmlns="http://www.w3.org/2000/svg">
<g clip-path="url(#clip0_3_2)">
<path d="M69.0415 243.818L59.8717 236.93H62.5887C64.2641 236.93 65.6226 236.797 66.6641 236.531C67.434 236.307 68.1019 235.971 68.6679 235.523C69.234 235.061 69.517 234.557 69.517 234.011C69.517 233.521 69.2792 233.059 68.8038 232.625C68.3283 232.177 67.6491 231.813 66.766 231.533C65.883 231.253 64.8641 231.113 63.7094 231.113H57.5283V243.818H56V230.168H63.7094C64.7509 230.168 65.7245 230.273 66.6302 230.483C67.5358 230.679 68.3283 230.966 69.0075 231.344C69.6641 231.708 70.1623 232.121 70.5019 232.583C70.8641 233.045 71.0453 233.521 71.0453 234.011C71.0453 234.781 70.6717 235.474 69.9245 236.09C69.1774 236.692 68.2943 237.126 67.2755 237.392C66.5736 237.588 65.883 237.714 65.2038 237.77C64.5472 237.812 63.8453 237.833 63.0981 237.833L71.0792 243.818H69.0415ZM91.2923 243.818H76.9942V230.168H91.2923V231.134H78.5225V236.51H88.4734V237.476H78.5225V242.831H91.2923V243.818ZM111.697 243.293C110.18 243.741 108.572 243.965 106.874 243.965C104.859 243.965 102.991 243.65 101.27 243.02C99.5497 242.39 98.1912 241.543 97.1949 240.479C96.1987 239.401 95.7006 238.232 95.7006 236.972C95.7006 235.712 96.1987 234.55 97.1949 233.486C98.1912 232.422 99.5497 231.575 101.27 230.945C102.991 230.315 104.859 230 106.874 230C108.436 230 109.931 230.203 111.357 230.609C112.806 231.001 114.074 231.561 115.161 232.289L113.972 232.94C113.067 232.31 111.991 231.82 110.746 231.47C109.523 231.12 108.233 230.945 106.874 230.945C105.131 230.945 103.523 231.218 102.052 231.764C100.58 232.296 99.4025 233.024 98.5195 233.948C97.6591 234.872 97.2289 235.88 97.2289 236.972C97.2289 238.064 97.6591 239.072 98.5195 239.996C99.4025 240.92 100.58 241.655 102.052 242.201C103.523 242.733 105.131 242.999 106.874 242.999C108.323 242.999 109.693 242.803 110.984 242.411C112.297 242.019 113.418 241.473 114.346 240.773L115.569 241.361C114.504 242.187 113.214 242.831 111.697 243.293ZM136.059 243.041C134.338 243.657 132.47 243.965 130.455 243.965C128.44 243.965 126.572 243.657 124.852 243.041C123.131 242.411 121.772 241.564 120.776 240.5C119.78 239.422 119.282 238.253 119.282 236.993C119.282 235.733 119.78 234.571 120.776 233.507C121.772 232.429 123.131 231.582 124.852 230.966C126.572 230.336 128.44 230.021 130.455 230.021C132.47 230.021 134.338 230.336 136.059 230.966C137.78 231.582 139.138 232.429 140.135 233.507C141.131 234.571 141.629 235.733 141.629 236.993C141.629 238.253 141.131 239.422 140.135 240.5C139.138 241.564 137.78 242.411 136.059 243.041ZM135.278 231.806C133.806 231.26 132.199 230.987 130.455 230.987C128.712 230.987 127.104 231.26 125.633 231.806C124.161 232.338 122.984 233.066 122.101 233.99C121.24 234.9 120.81 235.901 120.81 236.993C120.81 238.085 121.24 239.093 122.101 240.017C122.984 240.927 124.161 241.655 125.633 242.201C127.104 242.733 128.712 242.999 130.455 242.999C132.199 242.999 133.806 242.733 135.278 242.201C136.75 241.655 137.916 240.927 138.776 240.017C139.636 239.093 140.067 238.085 140.067 236.993C140.067 235.901 139.636 234.9 138.776 233.99C137.916 233.066 136.75 232.338 135.278 231.806ZM159.585 243.818L150.416 236.93H153.133C154.808 236.93 156.167 236.797 157.208 236.531C157.978 236.307 158.646 235.971 159.212 235.523C159.778 235.061 160.061 234.557 160.061 234.011C160.061 233.521 159.823 233.059 159.348 232.625C158.872 232.177 158.193 231.813 157.31 231.533C156.427 231.253 155.408 231.113 154.253 231.113H148.072V243.818H146.544V230.168H154.253C155.295 230.168 156.268 230.273 157.174 230.483C158.08 230.679 158.872 230.966 159.552 231.344C160.208 231.708 160.706 232.121 161.046 232.583C161.408 233.045 161.589 233.521 161.589 234.011C161.589 234.781 161.216 235.474 160.468 236.09C159.721 236.692 158.838 237.126 157.819 237.392C157.118 237.588 156.427 237.714 155.748 237.77C155.091 237.812 154.389 237.833 153.642 237.833L161.623 243.818H159.585ZM178.236 243.293C176.9 243.643 175.451 243.818 173.889 243.818H167.538V230.168H173.889C175.451 230.168 176.9 230.35 178.236 230.714C179.572 231.064 180.727 231.568 181.7 232.226C182.629 232.856 183.342 233.577 183.84 234.389C184.338 235.201 184.587 236.062 184.587 236.972C184.587 237.882 184.338 238.743 183.84 239.555C183.342 240.367 182.629 241.095 181.7 241.739C180.727 242.411 179.572 242.929 178.236 243.293ZM169.066 231.134V242.873H173.889C176.629 242.873 178.859 242.278 180.58 241.088C181.372 240.556 181.972 239.94 182.38 239.24C182.81 238.526 183.025 237.77 183.025 236.972C183.025 236.188 182.81 235.446 182.38 234.746C181.972 234.032 181.372 233.409 180.58 232.877C178.836 231.715 176.606 231.134 173.889 231.134H169.066ZM201.78 237.203C202.822 237.567 203.625 238.015 204.192 238.547C204.78 239.065 205.075 239.625 205.075 240.227C205.075 240.745 204.871 241.242 204.463 241.718C204.056 242.18 203.467 242.586 202.697 242.936C201.112 243.636 199.267 243.986 197.161 243.986C196.12 243.986 195.123 243.895 194.172 243.713C193.221 243.531 192.372 243.272 191.625 242.936C190.335 242.348 189.553 241.627 189.282 240.773L190.742 240.269C190.81 241.039 191.421 241.669 192.576 242.159C193.165 242.439 193.855 242.656 194.648 242.81C195.44 242.95 196.278 243.02 197.161 243.02C198.973 243.02 200.501 242.733 201.746 242.159C202.946 241.613 203.546 240.969 203.546 240.227C203.546 239.793 203.32 239.387 202.867 239.009C202.437 238.631 201.825 238.309 201.033 238.043C200.286 237.805 198.95 237.616 197.025 237.476C196.867 237.462 196.289 237.406 195.293 237.308C194.32 237.21 193.482 237.056 192.78 236.846C191.67 236.51 190.799 236.069 190.165 235.523C189.531 234.963 189.214 234.361 189.214 233.717C189.214 233.199 189.418 232.716 189.825 232.268C190.255 231.806 190.855 231.4 191.625 231.05C192.372 230.714 193.221 230.455 194.172 230.273C195.123 230.091 196.12 230 197.161 230C199.267 230 201.112 230.35 202.697 231.05C204.01 231.666 204.78 232.38 205.007 233.192L203.546 233.696C203.524 233.346 203.354 233.01 203.037 232.688C202.742 232.366 202.312 232.072 201.746 231.806C201.135 231.526 200.433 231.316 199.641 231.176C198.848 231.022 198.022 230.945 197.161 230.945C196.301 230.945 195.463 231.022 194.648 231.176C193.855 231.316 193.165 231.526 192.576 231.806C191.987 232.072 191.535 232.373 191.218 232.709C190.901 233.031 190.742 233.367 190.742 233.717C190.742 234.151 191.003 234.585 191.523 235.019C192.044 235.439 192.689 235.768 193.459 236.006C193.935 236.146 194.455 236.251 195.021 236.321C195.61 236.377 196.357 236.44 197.263 236.51C197.421 236.524 197.818 236.559 198.452 236.615C199.086 236.671 199.697 236.748 200.286 236.846C200.875 236.944 201.373 237.063 201.78 237.203Z" fill="white"/>
</g>
<g clip-path="url(#clip1_3_2)">
<path d="M163.307 206.1V204.804H168.453C170.053 204.804 171.431 204.588 172.587 204.156C173.742 203.712 174.631 203.094 175.253 202.302C175.876 201.51 176.187 200.592 176.187 199.548C176.187 198.516 175.876 197.616 175.253 196.848C174.631 196.08 173.742 195.486 172.587 195.066C171.449 194.646 170.071 194.436 168.453 194.436H163.307V193.14H168.453C170.462 193.14 172.213 193.41 173.707 193.95C175.2 194.478 176.356 195.228 177.173 196.2C178.009 197.16 178.427 198.288 178.427 199.584C178.427 200.88 178.009 202.02 177.173 203.004C176.338 203.976 175.173 204.738 173.68 205.29C172.204 205.83 170.471 206.1 168.48 206.1H163.307ZM162 206.1V193.14H164.187V206.1H162ZM187.385 206.1V193.14H189.572V206.1H187.385ZM188.505 206.1V204.804H200.239V206.1H188.505ZM188.505 199.998V198.702H199.279V199.998H188.505ZM188.505 194.436V193.14H200.025V194.436H188.505ZM193.972 191.826L189.705 189H192.985L195.999 191.826H193.972ZM215.085 206.262C212.845 206.262 211.058 205.89 209.725 205.146C208.409 204.402 207.636 203.34 207.405 201.96H209.538C209.734 202.956 210.294 203.706 211.218 204.21C212.143 204.714 213.423 204.966 215.058 204.966C216.445 204.966 217.485 204.792 218.178 204.444C218.889 204.084 219.245 203.562 219.245 202.878C219.245 202.29 219.005 201.822 218.525 201.474C218.045 201.126 217.298 200.838 216.285 200.61L213.058 199.854C211.423 199.47 210.214 199.008 209.431 198.468C208.649 197.916 208.258 197.22 208.258 196.38C208.258 195.684 208.516 195.084 209.031 194.58C209.547 194.064 210.276 193.662 211.218 193.374C212.16 193.086 213.254 192.942 214.498 192.942C216.418 192.942 217.956 193.284 219.111 193.968C220.267 194.64 220.934 195.6 221.111 196.848H218.978C218.747 195.948 218.267 195.288 217.538 194.868C216.827 194.448 215.796 194.238 214.445 194.238C213.165 194.238 212.169 194.412 211.458 194.76C210.747 195.108 210.391 195.6 210.391 196.236C210.391 196.776 210.64 197.208 211.138 197.532C211.636 197.856 212.409 198.138 213.458 198.378L216.898 199.188C218.391 199.536 219.511 200.01 220.258 200.61C221.005 201.198 221.378 201.948 221.378 202.86C221.378 203.94 220.827 204.78 219.725 205.38C218.64 205.968 217.094 206.262 215.085 206.262Z" fill="white"/>
</g>
<g clip-path="url(#clip2_3_2)">
<path d="M32 206.44V193H34.176L44.7488 204.312L44.4416 204.349V193H46.4384V206.44H44.2624L33.6896 195.128L33.9968 195.091V206.44H32ZM55.97 206.44V193H58.0692V206.44H55.97ZM68.3092 206.44V193H70.4084V206.44H68.3092ZM57.0452 198.768H69.2308V200.112H57.0452V198.768ZM78.66 206.44L85.7768 193H87.62L80.6824 206.44H78.66ZM93.3032 206.44L86.3656 193H88.3368L95.4536 206.44H93.3032ZM82.1928 201.008H91.8184V202.352H82.1928V201.008Z" fill="white"/>
</g>
<path d="M157.249 82.2658C158.233 92.3291 158.763 103.042 158.763 114.154C158.763 125.101 158.248 135.66 157.292 145.593M151.087 182.218C145.068 205.346 136.04 220.047 125.948 220.047C107.826 220.046 93.1341 172.637 93.1341 114.154C93.1341 55.6711 107.826 8.26141 125.948 8.26141C136.087 8.26141 145.152 23.0982 151.171 46.411" stroke="white" stroke-width="5" stroke-miterlimit="15.4" stroke-linejoin="round"/>
<path d="M173.07 58.2678C195.894 52.0607 212.943 52.566 217.948 61.2077C227.009 76.8526 193.166 113.24 142.356 142.481C91.5462 171.723 43.011 182.745 33.9494 167.1C28.9213 158.419 37.1033 143.352 54.0633 126.663M82.8058 102.927C90.9999 97.0972 99.9694 91.3349 109.542 85.8264C119.016 80.3735 128.412 75.5543 137.487 71.4233" stroke="white" stroke-width="5" stroke-miterlimit="15.4" stroke-linejoin="round"/>
<path d="M83.4195 125.816C91.447 131.497 100.208 137.11 109.542 142.481C119.236 148.06 128.847 152.976 138.117 157.17M172.562 169.846C195.205 175.95 212.969 175.696 217.948 167.1C227.009 151.455 193.166 115.068 142.356 85.8264C91.5462 56.5852 43.011 45.5628 33.9494 61.2077C28.8704 69.9767 37.2708 85.2618 54.5823 102.153" stroke="white" stroke-width="5" stroke-miterlimit="15.4" stroke-linejoin="round"/>
<path d="M68.0814 132.286C78.127 132.286 86.2706 124.167 86.2706 114.154C86.2706 104.14 78.127 96.0224 68.0814 96.0224C58.0355 96.0224 49.8918 104.14 49.8918 114.154C49.8918 124.167 58.0355 132.286 68.0814 132.286Z" stroke="white" stroke-width="6" stroke-miterlimit="15.4" stroke-linecap="round" stroke-linejoin="round"/>
<path d="M154.882 82.3308C164.928 82.3308 173.071 74.2127 173.071 64.1993C173.071 54.1853 164.928 46.0677 154.882 46.0677C144.836 46.0677 136.693 54.1853 136.693 64.1993C136.693 74.2127 144.836 82.3308 154.882 82.3308Z" stroke="white" stroke-width="6" stroke-miterlimit="15.4" stroke-linecap="round" stroke-linejoin="round"/>
<path d="M172.308 170.736C169.731 177.448 163.359 182.302 155.821 182.675L156.126 181.736C163.04 181.261 168.846 176.853 171.322 170.735L172.308 170.736ZM138.436 170.727C140.91 176.846 146.716 181.255 153.627 181.736L153.932 182.675C146.396 182.295 140.026 177.438 137.451 170.726L138.436 170.727ZM166.567 149.629C170.812 153.039 173.533 158.262 173.533 164.109C173.533 165.793 173.306 167.425 172.883 168.977L172.083 168.395C172.425 167.023 172.608 165.587 172.608 164.109C172.608 158.658 170.144 153.791 166.266 150.552L166.567 149.629ZM143.501 150.548C139.62 153.788 137.155 158.657 137.155 164.109C137.155 165.583 137.335 167.015 137.675 168.385L136.875 168.967C136.454 167.418 136.228 165.789 136.228 164.109C136.228 158.261 138.952 153.037 143.201 149.627L143.501 150.548ZM154.884 145.519C158.624 145.519 162.109 146.622 165.032 148.519L164.244 149.09C161.529 147.407 158.321 146.435 154.884 146.435C151.447 146.435 148.238 147.406 145.522 149.089L144.735 148.517C147.658 146.621 151.144 145.519 154.884 145.519Z" fill="white" stroke="white" stroke-width="4"/>
<path d="M155.154 180.938C155.154 180.938 155.153 180.938 155.153 180.937L155.152 180.935C155.153 180.937 155.154 180.938 155.154 180.938ZM154.119 177.749C154.119 177.75 154.118 177.751 154.118 177.752C154.119 177.757 154.121 177.764 154.122 177.766C154.122 177.767 154.123 177.768 154.123 177.769C154.123 177.77 154.124 177.772 154.124 177.774C154.126 177.779 154.13 177.789 154.134 177.803C154.143 177.831 154.158 177.876 154.179 177.944C154.223 178.078 154.294 178.297 154.398 178.619L154.875 180.09L154.876 180.086C154.886 180.116 154.896 180.146 154.905 180.176L154.876 180.266L149.528 163.791L149.578 163.755C151.883 170.86 153.294 175.205 154.119 177.749ZM158.013 170.608L155.434 178.549C155.424 178.52 155.415 178.491 155.405 178.461L157.957 170.608H158.013ZM170.178 169.155L152.867 169.15L152.848 169.09L168.463 169.096L170.003 169.096L168.759 168.191L161.95 163.236L161.967 163.183L170.178 169.155ZM153.641 159.003L140.999 168.185L139.753 169.09L141.295 169.09H149.712L149.731 169.15L139.585 169.145L153.598 158.971L153.641 159.003ZM158.983 167.632H158.927L163.757 152.783L164.234 151.317L162.984 152.224L156.172 157.169L156.124 157.134L164.337 151.17L158.983 167.632ZM159.435 161.345L159.418 161.397L146.785 152.214L145.535 151.306L146.011 152.772L148.613 160.786L148.565 160.821L145.43 151.165L159.435 161.345Z" fill="black" stroke="white" stroke-width="2.24795"/>
<path d="M54.0632 126.663L58.0815 123.289L62.2958 126.201L61.8071 121.001L70.5823 126.253L59.2477 110.72L66.9362 116.145C67.7978 114.723 67.2337 113.808 69.6484 111.87C72.0389 111.147 76.8826 115.868 81.0107 118.07L67.5682 101.674C72.1407 102.848 77.2729 107.952 79.4451 105.702L82.8058 102.927" stroke="white" stroke-miterlimit="15.4" stroke-linecap="round" stroke-linejoin="round"/>
<path d="M125.946 132.285C135.992 132.285 144.136 124.167 144.136 114.153C144.136 104.14 135.992 96.022 125.946 96.022C115.9 96.022 107.757 104.14 107.757 114.153C107.757 124.167 115.9 132.285 125.946 132.285Z" stroke="white" stroke-width="4" stroke-miterlimit="15.4" stroke-linecap="round" stroke-linejoin="round"/>
<path d="M125.946 114.154C125.988 114.284 125.94 114.585 126.072 114.543C126.201 114.5 125.946 114.291 125.946 114.154ZM125.946 114.154C125.946 113.06 126.043 111.968 126.072 110.874C126.152 107.891 126.072 104.893 126.072 101.907" stroke="white" stroke-miterlimit="15.4" stroke-linecap="round" stroke-linejoin="round"/>
<path fill-rule="evenodd" clip-rule="evenodd" d="M125.822 114.385C125.784 114.46 125.636 114.571 125.709 114.609C125.781 114.647 125.764 114.445 125.822 114.385C126.286 113.908 126.79 113.471 127.266 113.006C128.566 111.736 129.806 110.393 131.074 109.088" fill="white"/>
<path d="M125.822 114.385C125.784 114.46 125.636 114.571 125.709 114.609C125.781 114.647 125.764 114.445 125.822 114.385ZM125.822 114.385C126.286 113.908 126.79 113.471 127.266 113.006C128.566 111.736 129.806 110.393 131.074 109.088" stroke="white" stroke-miterlimit="15.4" stroke-linecap="round" stroke-linejoin="round"/>
<path d="M154.882 73.1847C147.643 66.0751 151.57 58.7175 154.882 55.2054M154.882 73.1847V55.2054M154.882 73.1847C162.121 66.0751 158.194 58.7175 154.882 55.2054" stroke="white" stroke-miterlimit="15" stroke-linecap="round" stroke-linejoin="round"/>
<path d="M152.689 70.5466C148.858 73.414 141.639 68.3747 140.124 65.5978C144.227 68.2029 148.142 65.3529 151.383 67.9277M157.076 70.5466C160.906 73.414 168.126 68.3747 169.64 65.5978C165.537 68.2029 161.622 65.3529 158.382 67.9277" stroke="white" stroke-miterlimit="6.4" stroke-linecap="round" stroke-linejoin="round"/>
<path d="M154.233 72.5146C152.684 74.8022 148.598 73.2639 148.646 71.4567M155.531 72.5146C157.081 74.8022 161.166 73.2639 161.119 71.4567" stroke="white" stroke-miterlimit="6.4" stroke-linecap="round" stroke-linejoin="round"/>
<path d="M147.552 71.2118C145.824 73.7898 141.714 72.4718 140.981 70.9117C142.406 70.5916 143.092 70.2252 143.904 69.239M162.212 71.2118C163.94 73.7898 168.05 72.4718 168.783 70.9117C167.358 70.5916 166.672 70.2252 165.861 69.239" stroke="white" stroke-miterlimit="6.4" stroke-linecap="round" stroke-linejoin="round"/>
<path d="M153.024 57.5723C152.155 55.8167 150.946 55.3189 149.91 54.6395C147.72 57.7624 147.409 64.1895 150.832 65.7251M156.741 57.5723C157.609 55.8167 158.818 55.3189 159.854 54.6395C162.044 57.7624 162.355 64.1895 158.932 65.7251" stroke="white" stroke-miterlimit="6.4" stroke-linecap="round" stroke-linejoin="round"/>
<path d="M148.728 66.8284C146.198 65.3302 142.889 62.5795 143.679 58.2321C145.31 59.6796 146.777 60.799 148.345 61.7211M161.036 66.8284C163.566 65.3302 166.875 62.5795 166.085 58.2321C164.454 59.6796 162.987 60.799 161.419 61.7211" stroke="white" stroke-miterlimit="6.4" stroke-linecap="round" stroke-linejoin="round"/>
<path d="M144.776 63.3408C143.662 62.9072 142.783 62.3422 141.38 61.3582C141.276 63.3092 141.483 64.6165 142.805 66.6419M164.988 63.3408C166.102 62.9072 166.981 62.3422 168.384 61.3582C168.488 63.3092 168.281 64.6165 166.96 66.6419" stroke="white" stroke-miterlimit="6.4" stroke-linecap="round" stroke-linejoin="round"/>
<defs>
<clipPath id="clip0_3_2">
<rect width="150" height="14" fill="white" transform="translate(56 230)"/>
</clipPath>
<clipPath id="clip1_3_2">
<rect width="60" height="18" fill="white" transform="translate(162 189)"/>
</clipPath>
<clipPath id="clip2_3_2">
<rect width="64" height="14" fill="white" transform="translate(32 193)"/>
</clipPath>
</defs>
</svg>
