<svg width="250" height="250" viewBox="0 0 250 250" fill="none" xmlns="http://www.w3.org/2000/svg">
<g clip-path="url(#clip0_3_2)">
<g clip-path="url(#clip1_3_2)">
<path d="M158.269 86.8183C159.298 97.3869 159.854 108.637 159.854 120.307C159.854 131.804 159.315 142.893 158.314 153.325M151.819 191.789C145.517 216.077 136.066 231.516 125.502 231.516C106.53 231.516 91.1502 181.726 91.1502 120.307C91.1502 58.8885 106.53 9.09884 125.502 9.09882C136.115 9.0988 145.604 24.6806 151.906 49.1634" stroke="white" stroke-width="1.9963" stroke-miterlimit="15.4" stroke-linejoin="round"/>
<path d="M174.831 61.6157C198.724 55.0968 216.572 55.6275 221.811 64.703C231.297 81.1332 195.868 119.347 142.678 150.057C89.4877 180.766 38.6787 192.342 29.1927 175.911C23.9292 166.795 32.4942 150.971 50.2489 133.445M80.338 108.516C88.916 102.394 98.3059 96.3429 108.326 90.5577C118.245 84.8312 128.08 79.7701 137.581 75.4318" stroke="white" stroke-width="1.9963" stroke-miterlimit="15.4" stroke-linejoin="round"/>
<path d="M80.9803 132.555C89.3841 138.521 98.5555 144.416 108.326 150.057C118.475 155.916 128.536 161.079 138.241 165.483M174.299 178.795C198.003 185.206 216.599 184.939 221.811 175.911C231.297 159.481 195.868 121.267 142.678 90.5577C89.4878 59.8484 38.6788 48.2728 29.1928 64.703C23.8759 73.9121 32.6696 89.965 50.7925 107.704" stroke="white" stroke-width="1.9963" stroke-miterlimit="15.4" stroke-linejoin="round"/>
<path d="M64.9237 139.349C75.4401 139.349 83.9653 130.824 83.9653 120.307C83.9653 109.791 75.4401 101.266 64.9237 101.266C54.4073 101.266 45.882 109.791 45.882 120.307C45.882 130.824 54.4073 139.349 64.9237 139.349Z" stroke="white" stroke-width="1.9963" stroke-miterlimit="15.4" stroke-linecap="round" stroke-linejoin="round"/>
<path d="M155.791 86.8865C166.307 86.8865 174.833 78.3613 174.833 67.8449C174.833 57.3284 166.307 48.8032 155.791 48.8032C145.275 48.8032 136.749 57.3284 136.749 67.8449C136.749 78.3613 145.275 86.8865 155.791 86.8865Z" stroke="white" stroke-width="1.9963" stroke-miterlimit="15.4" stroke-linecap="round" stroke-linejoin="round"/>
<path fill-rule="evenodd" clip-rule="evenodd" d="M155.793 152.312C144.51 152.312 135.328 161.487 135.328 172.77C135.328 184.053 144.51 193.228 155.793 193.228C167.076 193.228 176.251 184.053 176.251 172.77C176.251 161.487 167.076 152.312 155.793 152.312ZM155.793 155.144C159.437 155.144 162.818 156.245 165.623 158.132L167.237 156.956L166.621 158.856C170.756 162.079 173.412 167.108 173.412 172.77C173.412 174.464 173.173 176.101 172.729 177.65L174.299 178.795L172.358 178.794C169.97 185.386 163.769 190.133 156.402 190.383L155.785 192.287L155.169 190.383C147.806 190.127 141.605 185.378 139.218 178.786L137.276 178.785L138.847 177.64C138.405 176.094 138.169 174.46 138.169 172.77C138.169 167.106 140.826 162.075 144.965 158.852L144.903 158.662L144.35 156.956L145.961 158.131C148.768 156.244 152.149 155.144 155.793 155.144Z" fill="white"/>
<path fill-rule="evenodd" clip-rule="evenodd" d="M144.898 157.798L148.901 170.17L149.846 169.481L147.005 160.703L160.816 170.774L161.175 169.667L144.898 157.798ZM166.688 157.804L156.199 165.445L157.141 166.132L164.582 160.714L159.303 176.996L160.466 176.996L166.688 157.804ZM154.447 166.724L138.164 178.585L151.122 178.59L150.761 177.476L141.567 177.476L155.385 167.408L154.447 166.724ZM162.931 170.947L162.573 172.053L170.008 177.481L152.939 177.476L153.3 178.59L173.417 178.596L162.931 170.947ZM150.515 171.547L149.57 172.236L155.785 191.444L159.792 179.07L158.628 179.07L155.785 187.847C154.034 182.432 161.304 204.894 150.515 171.547Z" fill="white"/>
<path d="M50.249 133.445L54.4553 129.901L58.8669 132.959L58.3557 127.499L67.5421 133.014L55.6765 116.701L63.7249 122.399C64.6272 120.905 64.0365 119.945 66.5642 117.909C69.0665 117.149 74.1373 122.107 78.4589 124.42L64.3864 107.201C69.1731 108.434 74.5462 113.794 76.8199 111.431L80.3381 108.516" stroke="white" stroke-width="0.798522" stroke-miterlimit="15.4" stroke-linecap="round" stroke-linejoin="round"/>
<path d="M125.5 139.348C136.016 139.348 144.541 130.823 144.541 120.307C144.541 109.79 136.016 101.265 125.5 101.265C114.983 101.265 106.458 109.79 106.458 120.307C106.458 130.823 114.983 139.348 125.5 139.348Z" stroke="white" stroke-width="1.9963" stroke-miterlimit="15.4" stroke-linecap="round" stroke-linejoin="round"/>
<path d="M125.5 120.308C125.543 120.444 125.493 120.76 125.631 120.716C125.766 120.671 125.5 120.451 125.5 120.308ZM125.5 120.308C125.5 119.159 125.601 118.012 125.631 116.863C125.715 113.73 125.631 110.582 125.631 107.446" stroke="white" stroke-width="0.798522" stroke-miterlimit="15.4" stroke-linecap="round" stroke-linejoin="round"/>
<path fill-rule="evenodd" clip-rule="evenodd" d="M125.369 120.551C125.33 120.629 125.175 120.745 125.251 120.785C125.326 120.825 125.308 120.613 125.369 120.551C125.855 120.049 126.383 119.591 126.881 119.102C128.242 117.768 129.54 116.357 130.867 114.987" fill="white"/>
<path d="M125.369 120.551C125.33 120.629 125.175 120.745 125.251 120.785C125.326 120.825 125.308 120.613 125.369 120.551ZM125.369 120.551C125.855 120.049 126.383 119.591 126.881 119.102C128.242 117.768 129.54 116.357 130.867 114.987" stroke="white" stroke-width="0.798522" stroke-miterlimit="15.4" stroke-linecap="round" stroke-linejoin="round"/>
<path fill-rule="evenodd" clip-rule="evenodd" d="M155.791 77.2812C148.213 69.815 152.324 62.0876 155.791 58.3994ZM155.791 77.2812C163.369 69.815 159.258 62.0876 155.791 58.3994Z" stroke="white" stroke-width="0.798518" stroke-miterlimit="15" stroke-linecap="round" stroke-linejoin="round"/>
<path d="M153.495 74.5107C149.485 77.5222 141.927 72.2301 140.342 69.3138C144.637 72.0496 148.736 69.0566 152.128 71.7603M158.087 74.5107C162.097 77.5222 169.655 72.2301 171.24 69.3138C166.946 72.0496 162.846 69.0566 159.455 71.7603" stroke="white" stroke-width="0.798518" stroke-miterlimit="6.4" stroke-linecap="round" stroke-linejoin="round"/>
<path d="M155.112 76.5774C153.49 78.98 149.213 77.3647 149.262 75.4666M156.47 76.5774C158.093 78.98 162.369 77.3647 162.32 75.4666" stroke="white" stroke-width="0.798518" stroke-miterlimit="6.4" stroke-linecap="round" stroke-linejoin="round"/>
<path d="M148.118 75.2096C146.308 77.917 142.006 76.5328 141.239 74.8944C142.731 74.5579 143.448 74.1731 144.298 73.1376M163.464 75.2096C165.274 77.917 169.576 76.5328 170.343 74.8944C168.851 74.5579 168.134 74.1731 167.284 73.1376" stroke="white" stroke-width="0.798518" stroke-miterlimit="6.4" stroke-linecap="round" stroke-linejoin="round"/>
<path d="M153.846 60.8852C152.936 59.0413 151.671 58.5187 150.586 57.8052C148.293 61.0847 147.968 67.8347 151.551 69.4473M157.737 60.8852C158.646 59.0413 159.912 58.5187 160.996 57.8052C163.289 61.0847 163.614 67.8347 160.031 69.4473" stroke="white" stroke-width="0.798518" stroke-miterlimit="6.4" stroke-linecap="round" stroke-linejoin="round"/>
<path d="M149.349 70.6061C146.7 69.0324 143.236 66.1437 144.064 61.5783C145.77 63.0981 147.307 64.2737 148.948 65.2424M162.233 70.6061C164.882 69.0324 168.346 66.1437 167.519 61.5783C165.812 63.0981 164.275 64.2737 162.634 65.2424" stroke="white" stroke-width="0.798518" stroke-miterlimit="6.4" stroke-linecap="round" stroke-linejoin="round"/>
<path d="M145.212 66.9435C144.046 66.4878 143.125 65.8943 141.657 64.8612C141.548 66.9103 141.764 68.2831 143.148 70.4103M166.37 66.9435C167.536 66.4878 168.457 65.8943 169.925 64.8612C170.034 66.9103 169.818 68.2831 168.434 70.4103" stroke="white" stroke-width="0.798518" stroke-miterlimit="6.4" stroke-linecap="round" stroke-linejoin="round"/>
</g>
</g>
<defs>
<clipPath id="clip0_3_2">
<rect width="250" height="250" fill="white"/>
</clipPath>
<clipPath id="clip1_3_2">
<rect width="505" height="505" fill="white" transform="translate(-127 -127)"/>
</clipPath>
</defs>
</svg>
