<svg width="1080" height="1080" viewBox="0 0 1080 1080" fill="none" xmlns="http://www.w3.org/2000/svg">
<path d="M610.08 457.275C612.282 479.877 613.469 503.937 613.469 528.895C613.469 553.482 612.317 577.197 610.177 599.506M596.285 681.766C582.809 733.709 562.598 766.727 540.004 766.727C499.431 766.726 466.539 660.246 466.539 528.895C466.539 397.544 499.431 291.063 540.004 291.063C562.702 291.063 582.996 324.386 596.472 376.746" stroke="white" stroke-width="5" stroke-miterlimit="15.4" stroke-linejoin="round"/>
<path d="M645.5 403.376C696.598 389.435 734.767 390.57 745.973 409.979C766.26 445.117 690.49 526.842 576.737 592.517C462.984 658.193 354.323 682.948 334.036 647.811C322.779 628.314 341.097 594.473 379.067 556.99M443.416 503.679C461.761 490.586 481.842 477.644 503.272 465.272C524.484 453.025 545.519 442.201 565.837 432.923" stroke="white" stroke-width="5" stroke-miterlimit="15.4" stroke-linejoin="round"/>
<path d="M444.79 555.088C462.762 567.847 482.376 580.453 503.272 592.517C524.975 605.048 546.494 616.089 567.248 625.508M644.362 653.977C695.055 667.687 734.826 667.117 745.973 647.811C766.26 612.673 690.49 530.947 576.737 465.272C462.984 399.597 354.323 374.841 334.036 409.979C322.665 429.674 341.472 464.004 380.229 501.942" stroke="white" stroke-width="5" stroke-miterlimit="15.4" stroke-linejoin="round"/>
<path d="M410.451 569.618C432.941 569.618 451.173 551.385 451.173 528.895C451.173 506.404 432.941 488.172 410.451 488.172C387.96 488.172 369.728 506.404 369.728 528.895C369.728 551.385 387.96 569.618 410.451 569.618Z" stroke="white" stroke-width="6" stroke-miterlimit="15.4" stroke-linecap="round" stroke-linejoin="round"/>
<path d="M604.781 457.421C627.271 457.421 645.503 439.188 645.503 416.698C645.503 394.207 627.271 375.975 604.781 375.975C582.29 375.975 564.058 394.207 564.058 416.698C564.058 439.188 582.29 457.421 604.781 457.421Z" stroke="white" stroke-width="6" stroke-miterlimit="15.4" stroke-linecap="round" stroke-linejoin="round"/>
<path d="M643.794 655.976C638.024 671.051 623.759 681.953 606.882 682.792L607.566 680.683C623.045 679.616 636.043 669.716 641.587 655.974L643.794 655.976ZM567.962 655.957C573.5 669.699 586.498 679.603 601.97 680.682L602.653 682.791C585.782 681.939 571.52 671.03 565.755 655.955L567.962 655.957ZM630.94 608.57C640.445 616.229 646.537 627.961 646.537 641.093C646.537 644.875 646.028 648.54 645.082 652.026L643.291 650.719C644.056 647.637 644.465 644.412 644.465 641.093C644.465 628.85 638.949 617.919 630.267 610.645L630.94 608.57ZM579.3 610.636C570.612 617.911 565.093 628.847 565.093 641.093C565.093 644.403 565.496 647.62 566.258 650.697L564.467 652.003C563.524 648.524 563.018 644.866 563.018 641.093C563.018 627.959 569.117 616.225 578.629 608.566L579.3 610.636ZM604.785 599.34C613.158 599.34 620.961 601.818 627.504 606.077L625.74 607.361C619.661 603.58 612.48 601.398 604.785 601.398C597.09 601.398 589.906 603.578 583.826 607.358L582.064 606.074C588.608 601.816 596.413 599.34 604.785 599.34Z" fill="white" stroke="white" stroke-width="4"/>
<path d="M605.389 678.891C605.389 678.892 605.388 678.89 605.387 678.887C605.387 678.886 605.387 678.884 605.386 678.883C605.387 678.887 605.389 678.89 605.389 678.891ZM603.073 671.728C603.072 671.73 603.071 671.732 603.07 671.734C603.073 671.746 603.078 671.762 603.079 671.766C603.08 671.768 603.081 671.771 603.081 671.773C603.082 671.776 603.083 671.78 603.084 671.783C603.088 671.795 603.096 671.818 603.106 671.848C603.126 671.911 603.159 672.014 603.207 672.165C603.305 672.467 603.464 672.958 603.698 673.681L604.766 676.986L604.768 676.977C604.79 677.045 604.812 677.112 604.833 677.178L604.768 677.38L592.795 640.378L592.905 640.298C598.067 656.255 601.225 666.015 603.073 671.728ZM611.791 655.689L606.016 673.525C605.995 673.46 605.973 673.394 605.952 673.327L611.666 655.689H611.791ZM639.026 652.426L600.27 652.415L600.227 652.281L635.186 652.293L638.633 652.294L635.849 650.261L620.604 639.132L620.642 639.014L639.026 652.426ZM602.003 629.624L573.7 650.248L570.91 652.28L574.361 652.281H593.206L593.249 652.415L570.533 652.404L601.905 629.553L602.003 629.624ZM613.961 649.006H613.836L624.65 615.655L625.717 612.362L622.919 614.4L607.668 625.505L607.561 625.427L625.948 612.033L613.961 649.006ZM614.974 634.884L614.936 635.001L586.653 614.377L583.854 612.337L584.921 615.631L590.746 633.63L590.637 633.709L583.62 612.02L614.974 634.884Z" fill="black" stroke="white" stroke-width="2.24795"/>
<path d="M379.067 556.99L388.063 549.411L397.498 555.952L396.404 544.274L416.05 556.07L390.674 521.183L407.887 533.367C409.816 530.173 408.553 528.119 413.959 523.766C419.311 522.141 430.155 532.744 439.397 537.69L409.302 500.866C419.539 503.502 431.029 514.966 435.892 509.912L443.416 503.679" stroke="white" stroke-miterlimit="15.4" stroke-linecap="round" stroke-linejoin="round"/>
<path d="M539.999 569.616C562.49 569.616 580.722 551.384 580.722 528.893C580.722 506.403 562.49 488.171 539.999 488.171C517.508 488.171 499.276 506.403 499.276 528.893C499.276 551.384 517.508 569.616 539.999 569.616Z" stroke="white" stroke-width="4" stroke-miterlimit="15.4" stroke-linecap="round" stroke-linejoin="round"/>
<path d="M539.999 528.896C540.093 529.187 539.986 529.862 540.281 529.769C540.57 529.672 539.999 529.202 539.999 528.896ZM539.999 528.896C539.999 526.439 540.215 523.986 540.281 521.529C540.459 514.828 540.281 508.095 540.281 501.389" stroke="white" stroke-miterlimit="15.4" stroke-linecap="round" stroke-linejoin="round"/>
<path fill-rule="evenodd" clip-rule="evenodd" d="M539.72 529.415C539.636 529.582 539.305 529.832 539.467 529.917C539.628 530.002 539.59 529.549 539.72 529.415C540.76 528.342 541.888 527.362 542.954 526.317C545.865 523.465 548.64 520.447 551.478 517.516" fill="white"/>
<path d="M539.72 529.415C539.636 529.582 539.305 529.832 539.467 529.917C539.628 530.002 539.59 529.549 539.72 529.415ZM539.72 529.415C540.76 528.342 541.888 527.362 542.954 526.317C545.865 523.465 548.64 520.447 551.478 517.516" stroke="white" stroke-miterlimit="15.4" stroke-linecap="round" stroke-linejoin="round"/>
<path fill-rule="evenodd" clip-rule="evenodd" d="M604.781 436.879C588.575 420.911 597.366 404.386 604.781 396.498ZM604.781 436.879C620.987 420.911 612.195 404.386 604.781 396.498Z" stroke="white" stroke-miterlimit="15" stroke-linecap="round" stroke-linejoin="round"/>
<path d="M599.87 430.954C591.294 437.394 575.131 426.076 571.741 419.839C580.926 425.69 589.692 419.289 596.946 425.072M609.692 430.954C618.268 437.394 634.431 426.076 637.821 419.839C628.636 425.69 619.87 419.289 612.616 425.072" stroke="white" stroke-miterlimit="6.4" stroke-linecap="round" stroke-linejoin="round"/>
<path d="M603.328 435.374C599.859 440.512 590.713 437.057 590.819 432.998M606.234 435.374C609.703 440.512 618.849 437.057 618.743 432.998" stroke="white" stroke-miterlimit="6.4" stroke-linecap="round" stroke-linejoin="round"/>
<path d="M588.371 432.448C584.501 438.238 575.3 435.278 573.659 431.774C576.85 431.055 578.385 430.232 580.202 428.017M621.191 432.448C625.06 438.238 634.261 435.278 635.903 431.774C632.711 431.055 631.177 430.232 629.36 428.017" stroke="white" stroke-miterlimit="6.4" stroke-linecap="round" stroke-linejoin="round"/>
<path d="M600.62 401.814C598.675 397.871 595.969 396.753 593.649 395.227C588.746 402.241 588.05 416.676 595.714 420.125M608.942 401.814C610.886 397.871 613.593 396.753 615.913 395.227C620.816 402.241 621.512 416.676 613.848 420.125" stroke="white" stroke-miterlimit="6.4" stroke-linecap="round" stroke-linejoin="round"/>
<path d="M591.004 422.603C585.338 419.238 577.931 413.06 579.7 403.296C583.35 406.547 586.636 409.061 590.146 411.132M618.558 422.603C624.223 419.238 631.63 413.06 629.861 403.296C626.211 406.547 622.926 409.061 619.416 411.132" stroke="white" stroke-miterlimit="6.4" stroke-linecap="round" stroke-linejoin="round"/>
<path d="M582.156 414.77C579.662 413.796 577.693 412.527 574.553 410.317C574.32 414.699 574.783 417.635 577.742 422.184M627.406 414.77C629.9 413.796 631.868 412.527 635.008 410.317C635.242 414.699 634.778 417.635 631.82 422.184" stroke="white" stroke-miterlimit="6.4" stroke-linecap="round" stroke-linejoin="round"/>
<path d="M408.008 754V731.6H411.432L425.48 748.848H423.784V731.6H427.912V754H424.488L410.44 736.752H412.136V754H408.008ZM449.658 731.6H453.818V754H449.658V731.6ZM438.074 754H433.914V731.6H438.074V754ZM449.978 744.4H437.722V740.848H449.978V744.4ZM456.652 754L466.733 731.6H470.829L480.941 754H476.589L467.917 733.808H469.581L460.941 754H456.652ZM461.293 748.816L462.413 745.552H474.509L475.628 748.816H461.293Z" fill="white"/>
<path d="M608.008 754V731.6H617.8C620.232 731.6 622.365 732.069 624.2 733.008C626.035 733.947 627.464 735.248 628.488 736.912C629.512 738.576 630.024 740.539 630.024 742.8C630.024 745.04 629.512 747.003 628.488 748.688C627.464 750.352 626.035 751.653 624.2 752.592C622.365 753.531 620.232 754 617.8 754H608.008ZM612.168 750.48H617.608C619.293 750.48 620.744 750.16 621.96 749.52C623.197 748.88 624.147 747.984 624.808 746.832C625.491 745.68 625.832 744.336 625.832 742.8C625.832 741.243 625.491 739.899 624.808 738.768C624.147 737.616 623.197 736.72 621.96 736.08C620.744 735.44 619.293 735.12 617.608 735.12H612.168V750.48ZM638.286 740.912H649.422V744.336H638.286V740.912ZM638.606 750.512H651.246V754H634.446V731.6H650.798V735.088H638.606V750.512ZM641.902 729.776L636.334 725.392H641.038L645.358 729.776H641.902ZM662.827 754.32C661.078 754.32 659.403 754.075 657.803 753.584C656.203 753.072 654.934 752.421 653.995 751.632L655.435 748.4C656.331 749.104 657.44 749.691 658.763 750.16C660.086 750.629 661.44 750.864 662.827 750.864C664 750.864 664.95 750.736 665.675 750.48C666.4 750.224 666.934 749.883 667.275 749.456C667.616 749.008 667.787 748.507 667.787 747.952C667.787 747.269 667.542 746.725 667.051 746.32C666.56 745.893 665.92 745.563 665.131 745.328C664.363 745.072 663.499 744.837 662.539 744.624C661.6 744.411 660.651 744.165 659.691 743.888C658.752 743.589 657.888 743.216 657.099 742.768C656.331 742.299 655.702 741.68 655.211 740.912C654.72 740.144 654.475 739.163 654.475 737.968C654.475 736.752 654.795 735.643 655.435 734.64C656.096 733.616 657.088 732.805 658.411 732.208C659.755 731.589 661.451 731.28 663.499 731.28C664.843 731.28 666.176 731.451 667.499 731.792C668.822 732.133 669.974 732.624 670.955 733.264L669.643 736.496C668.64 735.899 667.606 735.461 666.539 735.184C665.472 734.885 664.448 734.736 663.467 734.736C662.315 734.736 661.376 734.875 660.651 735.152C659.947 735.429 659.424 735.792 659.083 736.24C658.763 736.688 658.603 737.2 658.603 737.776C658.603 738.459 658.838 739.013 659.307 739.44C659.798 739.845 660.427 740.165 661.195 740.4C661.984 740.635 662.859 740.869 663.819 741.104C664.779 741.317 665.728 741.563 666.667 741.84C667.627 742.117 668.491 742.48 669.259 742.928C670.048 743.376 670.678 743.984 671.147 744.752C671.638 745.52 671.883 746.491 671.883 747.664C671.883 748.859 671.552 749.968 670.891 750.992C670.251 751.995 669.259 752.805 667.915 753.424C666.571 754.021 664.875 754.32 662.827 754.32Z" fill="white"/>
<path d="M466.648 818V795.6H475.032C476.931 795.6 478.563 795.909 479.928 796.528C481.293 797.125 482.339 798 483.064 799.152C483.811 800.283 484.184 801.659 484.184 803.28C484.184 804.859 483.811 806.224 483.064 807.376C482.339 808.507 481.293 809.381 479.928 810C478.563 810.597 476.931 810.896 475.032 810.896H467.96L469.016 809.808V818H466.648ZM481.944 818L476.184 809.872H478.744L484.536 818H481.944ZM469.016 810L467.96 808.88H474.968C477.208 808.88 478.904 808.389 480.056 807.408C481.229 806.427 481.816 805.051 481.816 803.28C481.816 801.488 481.229 800.101 480.056 799.12C478.904 798.139 477.208 797.648 474.968 797.648H467.96L469.016 796.528V810ZM491.885 805.616H503.725V807.632H491.885V805.616ZM492.141 815.952H505.613V818H489.773V795.6H505.133V797.648H492.141V815.952ZM520.845 818.192C519.159 818.192 517.602 817.915 516.173 817.36C514.743 816.784 513.506 815.984 512.461 814.96C511.415 813.936 510.594 812.731 509.997 811.344C509.421 809.957 509.133 808.443 509.133 806.8C509.133 805.157 509.421 803.643 509.997 802.256C510.594 800.869 511.415 799.664 512.461 798.64C513.527 797.616 514.775 796.827 516.205 796.272C517.634 795.696 519.191 795.408 520.877 795.408C522.498 795.408 524.023 795.685 525.453 796.24C526.882 796.773 528.087 797.584 529.069 798.672L527.565 800.176C526.647 799.237 525.634 798.565 524.525 798.16C523.415 797.733 522.221 797.52 520.941 797.52C519.597 797.52 518.349 797.755 517.197 798.224C516.045 798.672 515.042 799.323 514.189 800.176C513.335 801.008 512.663 801.989 512.173 803.12C511.703 804.229 511.469 805.456 511.469 806.8C511.469 808.144 511.703 809.381 512.173 810.512C512.663 811.621 513.335 812.603 514.189 813.456C515.042 814.288 516.045 814.939 517.197 815.408C518.349 815.856 519.597 816.08 520.941 816.08C522.221 816.08 523.415 815.867 524.525 815.44C525.634 815.013 526.647 814.331 527.565 813.392L529.069 814.896C528.087 815.984 526.882 816.805 525.453 817.36C524.023 817.915 522.487 818.192 520.845 818.192ZM543.44 818.192C541.755 818.192 540.187 817.915 538.736 817.36C537.307 816.784 536.059 815.984 534.992 814.96C533.947 813.915 533.125 812.709 532.528 811.344C531.952 809.957 531.664 808.443 531.664 806.8C531.664 805.157 531.952 803.653 532.528 802.288C533.125 800.901 533.947 799.696 534.992 798.672C536.059 797.627 537.307 796.827 538.736 796.272C540.165 795.696 541.733 795.408 543.44 795.408C545.125 795.408 546.683 795.696 548.112 796.272C549.541 796.827 550.779 797.616 551.824 798.64C552.891 799.664 553.712 800.869 554.288 802.256C554.885 803.643 555.184 805.157 555.184 806.8C555.184 808.443 554.885 809.957 554.288 811.344C553.712 812.731 552.891 813.936 551.824 814.96C550.779 815.984 549.541 816.784 548.112 817.36C546.683 817.915 545.125 818.192 543.44 818.192ZM543.44 816.08C544.784 816.08 546.021 815.856 547.152 815.408C548.304 814.939 549.296 814.288 550.128 813.456C550.981 812.603 551.643 811.621 552.112 810.512C552.581 809.381 552.816 808.144 552.816 806.8C552.816 805.456 552.581 804.229 552.112 803.12C551.643 801.989 550.981 801.008 550.128 800.176C549.296 799.323 548.304 798.672 547.152 798.224C546.021 797.755 544.784 797.52 543.44 797.52C542.096 797.52 540.848 797.755 539.696 798.224C538.544 798.672 537.541 799.323 536.688 800.176C535.856 801.008 535.195 801.989 534.704 803.12C534.235 804.229 534 805.456 534 806.8C534 808.123 534.235 809.349 534.704 810.48C535.195 811.611 535.856 812.603 536.688 813.456C537.541 814.288 538.544 814.939 539.696 815.408C540.848 815.856 542.096 816.08 543.44 816.08ZM560.492 818V795.6H568.876C570.774 795.6 572.406 795.909 573.772 796.528C575.137 797.125 576.182 798 576.908 799.152C577.654 800.283 578.028 801.659 578.028 803.28C578.028 804.859 577.654 806.224 576.908 807.376C576.182 808.507 575.137 809.381 573.772 810C572.406 810.597 570.774 810.896 568.876 810.896H561.804L562.86 809.808V818H560.492ZM575.788 818L570.028 809.872H572.588L578.38 818H575.788ZM562.86 810L561.804 808.88H568.812C571.052 808.88 572.748 808.389 573.9 807.408C575.073 806.427 575.66 805.051 575.66 803.28C575.66 801.488 575.073 800.101 573.9 799.12C572.748 798.139 571.052 797.648 568.812 797.648H561.804L562.86 796.528V810ZM583.617 818V795.6H592.737C595.126 795.6 597.217 796.08 599.009 797.04C600.822 797.979 602.23 799.291 603.233 800.976C604.235 802.661 604.737 804.603 604.737 806.8C604.737 808.997 604.235 810.939 603.233 812.624C602.23 814.309 600.822 815.632 599.009 816.592C597.217 817.531 595.126 818 592.737 818H583.617ZM585.985 815.952H592.609C594.593 815.952 596.31 815.568 597.761 814.8C599.233 814.011 600.374 812.933 601.185 811.568C601.995 810.181 602.401 808.592 602.401 806.8C602.401 804.987 601.995 803.397 601.185 802.032C600.374 800.667 599.233 799.6 597.761 798.832C596.31 798.043 594.593 797.648 592.609 797.648H585.985V815.952ZM616.23 818.192C614.566 818.192 612.966 817.925 611.43 817.392C609.916 816.837 608.742 816.133 607.91 815.28L608.838 813.456C609.628 814.224 610.684 814.875 612.006 815.408C613.35 815.92 614.758 816.176 616.23 816.176C617.638 816.176 618.78 816.005 619.654 815.664C620.55 815.301 621.201 814.821 621.606 814.224C622.033 813.627 622.246 812.965 622.246 812.24C622.246 811.365 621.99 810.661 621.478 810.128C620.988 809.595 620.337 809.179 619.526 808.88C618.716 808.56 617.82 808.283 616.838 808.048C615.857 807.813 614.876 807.568 613.894 807.312C612.913 807.035 612.006 806.672 611.174 806.224C610.364 805.776 609.702 805.189 609.19 804.464C608.7 803.717 608.454 802.747 608.454 801.552C608.454 800.443 608.742 799.429 609.318 798.512C609.916 797.573 610.822 796.827 612.038 796.272C613.254 795.696 614.812 795.408 616.71 795.408C617.969 795.408 619.217 795.589 620.454 795.952C621.692 796.293 622.758 796.773 623.654 797.392L622.854 799.28C621.894 798.64 620.87 798.171 619.782 797.872C618.716 797.573 617.681 797.424 616.678 797.424C615.334 797.424 614.225 797.605 613.35 797.968C612.476 798.331 611.825 798.821 611.398 799.44C610.993 800.037 610.79 800.72 610.79 801.488C610.79 802.363 611.036 803.067 611.526 803.6C612.038 804.133 612.7 804.549 613.51 804.848C614.342 805.147 615.249 805.413 616.23 805.648C617.212 805.883 618.182 806.139 619.142 806.416C620.124 806.693 621.02 807.056 621.83 807.504C622.662 807.931 623.324 808.507 623.814 809.232C624.326 809.957 624.582 810.907 624.582 812.08C624.582 813.168 624.284 814.181 623.686 815.12C623.089 816.037 622.172 816.784 620.934 817.36C619.718 817.915 618.15 818.192 616.23 818.192Z" fill="white"/>
</svg>
