<svg width="64" height="14" viewBox="0 0 64 14" fill="none" xmlns="http://www.w3.org/2000/svg">
<g clip-path="url(#clip0_1_17)">
<path d="M0 13.44V0H2.176L12.7488 11.312L12.4416 11.3493V0H14.4384V13.44H12.2624L1.6896 2.128L1.9968 2.09067V13.44H0ZM23.97 13.44V0H26.0692V13.44H23.97ZM36.3092 13.44V0H38.4084V13.44H36.3092ZM25.0452 5.768H37.2308V7.112H25.0452V5.768ZM46.66 13.44L53.7768 0H55.62L48.6824 13.44H46.66ZM61.3032 13.44L54.3656 0H56.3368L63.4536 13.44H61.3032ZM50.1928 8.008H59.8184V9.352H50.1928V8.008Z" fill="white"/>
</g>
<defs>
<clipPath id="clip0_1_17">
<rect width="64" height="14" fill="white"/>
</clipPath>
</defs>
</svg>
