<svg width="144" height="51" viewBox="0 0 144 51" fill="none" xmlns="http://www.w3.org/2000/svg">
<path d="M-1.94311e-05 21.288V4.488H1.96798L13.08 18.288H12.048V4.488H14.448V21.288H12.48L1.36798 7.488H2.39998V21.288H-1.94311e-05ZM31.5245 4.488H33.9245V21.288H31.5245V4.488ZM21.8765 21.288H19.4765V4.488H21.8765V21.288ZM31.7405 13.8H21.6365V11.712H31.7405V13.8ZM36.4091 21.288L44.0171 4.488H46.3931L54.0251 21.288H51.5051L44.7131 5.832H45.6731L38.8811 21.288H36.4091ZM39.6491 17.088L40.2971 15.168H49.7531L50.4491 17.088H39.6491ZM56.5312 21.288V4.488H63.6112C65.4032 4.488 66.9792 4.84 68.3392 5.544C69.7152 6.248 70.7792 7.232 71.5312 8.496C72.2992 9.76 72.6832 11.224 72.6832 12.888C72.6832 14.552 72.2992 16.016 71.5312 17.28C70.7792 18.544 69.7152 19.528 68.3392 20.232C66.9792 20.936 65.4032 21.288 63.6112 21.288H56.5312ZM58.9312 19.2H63.4672C64.8592 19.2 66.0592 18.936 67.0672 18.408C68.0912 17.88 68.8832 17.144 69.4432 16.2C70.0032 15.24 70.2832 14.136 70.2832 12.888C70.2832 11.624 70.0032 10.52 69.4432 9.576C68.8832 8.632 68.0912 7.896 67.0672 7.368C66.0592 6.84 64.8592 6.576 63.4672 6.576H58.9312V19.2ZM78.5434 11.736H87.1834V13.776H78.5434V11.736ZM78.7594 19.2H88.5514V21.288H76.3594V4.488H88.2154V6.576H78.7594V19.2ZM81.9514 3.12L77.9194 1.43051e-06H80.8474L84.1114 3.12H81.9514ZM97.3335 21.48C96.0535 21.48 94.8295 21.288 93.6615 20.904C92.4935 20.504 91.5735 19.992 90.9015 19.368L91.7895 17.496C92.4295 18.056 93.2455 18.52 94.2375 18.888C95.2295 19.256 96.2615 19.44 97.3335 19.44C98.3095 19.44 99.1015 19.328 99.7095 19.104C100.317 18.88 100.765 18.576 101.053 18.192C101.341 17.792 101.485 17.344 101.485 16.848C101.485 16.272 101.293 15.808 100.909 15.456C100.541 15.104 100.053 14.824 99.4455 14.616C98.8535 14.392 98.1975 14.2 97.4775 14.04C96.7575 13.88 96.0295 13.696 95.2935 13.488C94.5735 13.264 93.9095 12.984 93.3015 12.648C92.7095 12.312 92.2295 11.864 91.8615 11.304C91.4935 10.728 91.3095 9.992 91.3095 9.096C91.3095 8.232 91.5335 7.44 91.9815 6.72C92.4455 5.984 93.1495 5.4 94.0935 4.968C95.0535 4.52 96.2695 4.296 97.7415 4.296C98.7175 4.296 99.6855 4.424 100.645 4.68C101.605 4.936 102.437 5.304 103.141 5.784L102.349 7.704C101.629 7.224 100.869 6.88 100.069 6.672C99.2695 6.448 98.4935 6.336 97.7415 6.336C96.7975 6.336 96.0215 6.456 95.4135 6.696C94.8055 6.936 94.3575 7.256 94.0695 7.656C93.7975 8.056 93.6615 8.504 93.6615 9C93.6615 9.592 93.8455 10.064 94.2135 10.416C94.5975 10.768 95.0855 11.048 95.6775 11.256C96.2855 11.464 96.9495 11.656 97.6695 11.832C98.3895 11.992 99.1095 12.176 99.8295 12.384C100.565 12.592 101.229 12.864 101.821 13.2C102.429 13.536 102.917 13.984 103.285 14.544C103.653 15.104 103.837 15.824 103.837 16.704C103.837 17.552 103.605 18.344 103.141 19.08C102.677 19.8 101.957 20.384 100.981 20.832C100.021 21.264 98.8055 21.48 97.3335 21.48ZM25.341 50.288V33.488H31.629C33.053 33.488 34.277 33.72 35.301 34.184C36.325 34.632 37.109 35.288 37.653 36.152C38.213 37 38.493 38.032 38.493 39.248C38.493 40.432 38.213 41.456 37.653 42.32C37.109 43.168 36.325 43.824 35.301 44.288C34.277 44.736 33.053 44.96 31.629 44.96H26.325L27.117 44.144V50.288H25.341ZM36.813 50.288L32.493 44.192H34.413L38.757 50.288H36.813ZM27.117 44.288L26.325 43.448H31.581C33.261 43.448 34.533 43.08 35.397 42.344C36.277 41.608 36.717 40.576 36.717 39.248C36.717 37.904 36.277 36.864 35.397 36.128C34.533 35.392 33.261 35.024 31.581 35.024H26.325L27.117 34.184V44.288ZM44.2687 41H53.1487V42.512H44.2687V41ZM44.4607 48.752H54.5647V50.288H42.6847V33.488H54.2047V35.024H44.4607V48.752ZM65.9885 50.432C64.7245 50.432 63.5565 50.224 62.4845 49.808C61.4125 49.376 60.4845 48.776 59.7005 48.008C58.9165 47.24 58.3005 46.336 57.8525 45.296C57.4205 44.256 57.2045 43.12 57.2045 41.888C57.2045 40.656 57.4205 39.52 57.8525 38.48C58.3005 37.44 58.9165 36.536 59.7005 35.768C60.5005 35 61.4365 34.408 62.5085 33.992C63.5805 33.56 64.7485 33.344 66.0125 33.344C67.2285 33.344 68.3725 33.552 69.4445 33.968C70.5165 34.368 71.4205 34.976 72.1565 35.792L71.0285 36.92C70.3405 36.216 69.5805 35.712 68.7485 35.408C67.9165 35.088 67.0205 34.928 66.0605 34.928C65.0525 34.928 64.1165 35.104 63.2525 35.456C62.3885 35.792 61.6365 36.28 60.9965 36.92C60.3565 37.544 59.8525 38.28 59.4845 39.128C59.1325 39.96 58.9565 40.88 58.9565 41.888C58.9565 42.896 59.1325 43.824 59.4845 44.672C59.8525 45.504 60.3565 46.24 60.9965 46.88C61.6365 47.504 62.3885 47.992 63.2525 48.344C64.1165 48.68 65.0525 48.848 66.0605 48.848C67.0205 48.848 67.9165 48.688 68.7485 48.368C69.5805 48.048 70.3405 47.536 71.0285 46.832L72.1565 47.96C71.4205 48.776 70.5165 49.392 69.4445 49.808C68.3725 50.224 67.2205 50.432 65.9885 50.432ZM82.935 50.432C81.671 50.432 80.495 50.224 79.407 49.808C78.335 49.376 77.399 48.776 76.599 48.008C75.815 47.224 75.199 46.32 74.751 45.296C74.319 44.256 74.103 43.12 74.103 41.888C74.103 40.656 74.319 39.528 74.751 38.504C75.199 37.464 75.815 36.56 76.599 35.792C77.399 35.008 78.335 34.408 79.407 33.992C80.479 33.56 81.655 33.344 82.935 33.344C84.199 33.344 85.367 33.56 86.439 33.992C87.511 34.408 88.439 35 89.223 35.768C90.023 36.536 90.639 37.44 91.071 38.48C91.519 39.52 91.743 40.656 91.743 41.888C91.743 43.12 91.519 44.256 91.071 45.296C90.639 46.336 90.023 47.24 89.223 48.008C88.439 48.776 87.511 49.376 86.439 49.808C85.367 50.224 84.199 50.432 82.935 50.432ZM82.935 48.848C83.943 48.848 84.871 48.68 85.719 48.344C86.583 47.992 87.327 47.504 87.951 46.88C88.591 46.24 89.087 45.504 89.439 44.672C89.791 43.824 89.967 42.896 89.967 41.888C89.967 40.88 89.791 39.96 89.439 39.128C89.087 38.28 88.591 37.544 87.951 36.92C87.327 36.28 86.583 35.792 85.719 35.456C84.871 35.104 83.943 34.928 82.935 34.928C81.927 34.928 80.991 35.104 80.127 35.456C79.263 35.792 78.511 36.28 77.871 36.92C77.247 37.544 76.751 38.28 76.383 39.128C76.031 39.96 75.855 40.88 75.855 41.888C75.855 42.88 76.031 43.8 76.383 44.648C76.751 45.496 77.247 46.24 77.871 46.88C78.511 47.504 79.263 47.992 80.127 48.344C80.991 48.68 81.927 48.848 82.935 48.848ZM95.7238 50.288V33.488H102.012C103.436 33.488 104.66 33.72 105.684 34.184C106.708 34.632 107.492 35.288 108.036 36.152C108.596 37 108.876 38.032 108.876 39.248C108.876 40.432 108.596 41.456 108.036 42.32C107.492 43.168 106.708 43.824 105.684 44.288C104.66 44.736 103.436 44.96 102.012 44.96H96.7078L97.4998 44.144V50.288H95.7238ZM107.196 50.288L102.876 44.192H104.796L109.14 50.288H107.196ZM97.4998 44.288L96.7078 43.448H101.964C103.644 43.448 104.916 43.08 105.78 42.344C106.66 41.608 107.1 40.576 107.1 39.248C107.1 37.904 106.66 36.864 105.78 36.128C104.916 35.392 103.644 35.024 101.964 35.024H96.7078L97.4998 34.184V44.288ZM113.068 50.288V33.488H119.908C121.7 33.488 123.268 33.848 124.612 34.568C125.972 35.272 127.028 36.256 127.78 37.52C128.532 38.784 128.908 40.24 128.908 41.888C128.908 43.536 128.532 44.992 127.78 46.256C127.028 47.52 125.972 48.512 124.612 49.232C123.268 49.936 121.7 50.288 119.908 50.288H113.068ZM114.844 48.752H119.812C121.3 48.752 122.588 48.464 123.676 47.888C124.78 47.296 125.636 46.488 126.244 45.464C126.852 44.424 127.156 43.232 127.156 41.888C127.156 40.528 126.852 39.336 126.244 38.312C125.636 37.288 124.78 36.488 123.676 35.912C122.588 35.32 121.3 35.024 119.812 35.024H114.844V48.752ZM137.528 50.432C136.28 50.432 135.08 50.232 133.928 49.832C132.792 49.416 131.912 48.888 131.288 48.248L131.984 46.88C132.576 47.456 133.368 47.944 134.36 48.344C135.368 48.728 136.424 48.92 137.528 48.92C138.584 48.92 139.44 48.792 140.096 48.536C140.768 48.264 141.256 47.904 141.56 47.456C141.88 47.008 142.04 46.512 142.04 45.968C142.04 45.312 141.848 44.784 141.464 44.384C141.096 43.984 140.608 43.672 140 43.448C139.392 43.208 138.72 43 137.984 42.824C137.248 42.648 136.512 42.464 135.776 42.272C135.04 42.064 134.36 41.792 133.736 41.456C133.128 41.12 132.632 40.68 132.248 40.136C131.88 39.576 131.696 38.848 131.696 37.952C131.696 37.12 131.912 36.36 132.344 35.672C132.792 34.968 133.472 34.408 134.384 33.992C135.296 33.56 136.464 33.344 137.888 33.344C138.832 33.344 139.768 33.48 140.696 33.752C141.624 34.008 142.424 34.368 143.096 34.832L142.496 36.248C141.776 35.768 141.008 35.416 140.192 35.192C139.392 34.968 138.616 34.856 137.864 34.856C136.856 34.856 136.024 34.992 135.368 35.264C134.712 35.536 134.224 35.904 133.904 36.368C133.6 36.816 133.448 37.328 133.448 37.904C133.448 38.56 133.632 39.088 134 39.488C134.384 39.888 134.88 40.2 135.488 40.424C136.112 40.648 136.792 40.848 137.528 41.024C138.264 41.2 138.992 41.392 139.712 41.6C140.448 41.808 141.12 42.08 141.728 42.416C142.352 42.736 142.848 43.168 143.216 43.712C143.6 44.256 143.792 44.968 143.792 45.848C143.792 46.664 143.568 47.424 143.12 48.128C142.672 48.816 141.984 49.376 141.056 49.808C140.144 50.224 138.968 50.432 137.528 50.432Z" fill="white"/>
</svg>
