<svg width="166" height="16" viewBox="0 0 166 16" fill="none" xmlns="http://www.w3.org/2000/svg">
<path d="M14.4326 15.792L4.28468 7.92H7.29147C9.14566 7.92 10.6491 7.768 11.8017 7.464C12.6536 7.208 13.3928 6.824 14.0192 6.312C14.6456 5.784 14.9588 5.208 14.9588 4.584C14.9588 4.024 14.6957 3.496 14.1695 3C13.6433 2.488 12.8916 2.072 11.9144 1.752C10.9372 1.432 9.80966 1.272 8.53177 1.272H1.69132V15.792H0V0.192H8.53177C9.68437 0.192 10.7618 0.312 11.7641 0.552C12.7663 0.776 13.6433 1.104 14.395 1.536C15.1217 1.952 15.6729 2.424 16.0488 2.952C16.4497 3.48 16.6501 4.024 16.6501 4.584C16.6501 5.464 16.2367 6.256 15.4098 6.96C14.5829 7.648 13.6057 8.144 12.4782 8.448C11.7014 8.672 10.9372 8.816 10.1855 8.88C9.45887 8.928 8.68211 8.952 7.85524 8.952L16.6877 15.792H14.4326ZM39.0568 15.792H23.2336V0.192H39.0568V1.296H24.9249V7.44H35.9373V8.544H24.9249V14.664H39.0568V15.792ZM61.6378 15.192C59.959 15.704 58.18 15.96 56.3008 15.96C54.0707 15.96 52.0036 15.6 50.0993 14.88C48.195 14.16 46.6916 13.192 45.5891 11.976C44.4866 10.744 43.9353 9.408 43.9353 7.968C43.9353 6.528 44.4866 5.2 45.5891 3.984C46.6916 2.768 48.195 1.8 50.0993 1.08C52.0036 0.36 54.0707 0 56.3008 0C58.0297 0 59.6834 0.232 61.262 0.696001C62.8656 1.144 64.2688 1.784 65.4715 2.616L64.156 3.36C63.1538 2.64 61.9636 2.08 60.5855 1.68C59.2324 1.28 57.8042 1.08 56.3008 1.08C54.3714 1.08 52.5924 1.392 50.9637 2.016C49.335 2.624 48.0321 3.456 47.0549 4.512C46.1027 5.568 45.6267 6.72 45.6267 7.968C45.6267 9.216 46.1027 10.368 47.0549 11.424C48.0321 12.48 49.335 13.32 50.9637 13.944C52.5924 14.552 54.3714 14.856 56.3008 14.856C57.9044 14.856 59.4203 14.632 60.8485 14.184C62.3018 13.736 63.5421 13.112 64.5695 12.312L65.9225 12.984C64.7449 13.928 63.3166 14.664 61.6378 15.192ZM88.5987 14.904C86.6944 15.608 84.6273 15.96 82.3972 15.96C80.1672 15.96 78.1 15.608 76.1957 14.904C74.2914 14.184 72.788 13.216 71.6855 12C70.583 10.768 70.0318 9.432 70.0318 7.992C70.0318 6.552 70.583 5.224 71.6855 4.008C72.788 2.776 74.2914 1.808 76.1957 1.104C78.1 0.384 80.1672 0.0240011 82.3972 0.0240011C84.6273 0.0240011 86.6944 0.384 88.5987 1.104C90.503 1.808 92.0064 2.776 93.1089 4.008C94.2114 5.224 94.7627 6.552 94.7627 7.992C94.7627 9.432 94.2114 10.768 93.1089 12C92.0064 13.216 90.503 14.184 88.5987 14.904ZM87.7343 2.064C86.1056 1.44 84.3266 1.128 82.3972 1.128C80.4679 1.128 78.6889 1.44 77.0602 2.064C75.4315 2.672 74.1286 3.504 73.1513 4.56C72.1992 5.6 71.7231 6.744 71.7231 7.992C71.7231 9.24 72.1992 10.392 73.1513 11.448C74.1286 12.488 75.4315 13.32 77.0602 13.944C78.6889 14.552 80.4679 14.856 82.3972 14.856C84.3266 14.856 86.1056 14.552 87.7343 13.944C89.363 13.32 90.6534 12.488 91.6055 11.448C92.5577 10.392 93.0338 9.24 93.0338 7.992C93.0338 6.744 92.5577 5.6 91.6055 4.56C90.6534 3.504 89.363 2.672 87.7343 2.064ZM114.635 15.792L104.487 7.92H107.493C109.348 7.92 110.851 7.768 112.004 7.464C112.856 7.208 113.595 6.824 114.221 6.312C114.848 5.784 115.161 5.208 115.161 4.584C115.161 4.024 114.898 3.496 114.372 3C113.845 2.488 113.094 2.072 112.116 1.752C111.139 1.432 110.012 1.272 108.734 1.272H101.893V15.792H100.202V0.192H108.734C109.886 0.192 110.964 0.312 111.966 0.552C112.968 0.776 113.845 1.104 114.597 1.536C115.324 1.952 115.875 2.424 116.251 2.952C116.652 3.48 116.852 4.024 116.852 4.584C116.852 5.464 116.439 6.256 115.612 6.96C114.785 7.648 113.808 8.144 112.68 8.448C111.903 8.672 111.139 8.816 110.388 8.88C109.661 8.928 108.884 8.952 108.057 8.952L116.89 15.792H114.635ZM135.275 15.192C133.796 15.592 132.193 15.792 130.464 15.792H123.436V0.192H130.464C132.193 0.192 133.796 0.4 135.275 0.816001C136.753 1.216 138.031 1.792 139.108 2.544C140.136 3.264 140.925 4.088 141.476 5.016C142.028 5.944 142.303 6.928 142.303 7.968C142.303 9.008 142.028 9.992 141.476 10.92C140.925 11.848 140.136 12.68 139.108 13.416C138.031 14.184 136.753 14.776 135.275 15.192ZM125.127 1.296V14.712H130.464C133.496 14.712 135.964 14.032 137.868 12.672C138.745 12.064 139.409 11.36 139.86 10.56C140.336 9.744 140.574 8.88 140.574 7.968C140.574 7.072 140.336 6.224 139.86 5.424C139.409 4.608 138.745 3.896 137.868 3.288C135.939 1.96 133.471 1.296 130.464 1.296H125.127ZM161.33 8.232C162.483 8.648 163.372 9.16 163.999 9.768C164.65 10.36 164.976 11 164.976 11.688C164.976 12.28 164.75 12.848 164.299 13.392C163.848 13.92 163.197 14.384 162.345 14.784C160.591 15.584 158.549 15.984 156.218 15.984C155.066 15.984 153.963 15.88 152.911 15.672C151.858 15.464 150.919 15.168 150.092 14.784C148.664 14.112 147.799 13.288 147.499 12.312L149.115 11.736C149.19 12.616 149.866 13.336 151.144 13.896C151.796 14.216 152.56 14.464 153.437 14.64C154.314 14.8 155.241 14.88 156.218 14.88C158.223 14.88 159.914 14.552 161.292 13.896C162.62 13.272 163.284 12.536 163.284 11.688C163.284 11.192 163.034 10.728 162.533 10.296C162.057 9.864 161.38 9.496 160.503 9.192C159.676 8.92 158.198 8.704 156.068 8.544C155.892 8.528 155.254 8.464 154.151 8.352C153.074 8.24 152.147 8.064 151.37 7.824C150.142 7.44 149.177 6.936 148.476 6.312C147.774 5.672 147.423 4.984 147.423 4.248C147.423 3.656 147.649 3.104 148.1 2.592C148.576 2.064 149.24 1.6 150.092 1.2C150.919 0.816 151.858 0.52 152.911 0.312C153.963 0.104 155.066 0 156.218 0C158.549 0 160.591 0.4 162.345 1.2C163.798 1.904 164.65 2.72 164.901 3.648L163.284 4.224C163.259 3.824 163.072 3.44 162.721 3.072C162.395 2.704 161.919 2.368 161.292 2.064C160.616 1.744 159.839 1.504 158.962 1.344C158.085 1.168 157.171 1.08 156.218 1.08C155.266 1.08 154.339 1.168 153.437 1.344C152.56 1.504 151.796 1.744 151.144 2.064C150.493 2.368 149.992 2.712 149.641 3.096C149.29 3.464 149.115 3.848 149.115 4.248C149.115 4.744 149.403 5.24 149.979 5.736C150.555 6.216 151.27 6.592 152.121 6.864C152.648 7.024 153.224 7.144 153.85 7.224C154.502 7.288 155.329 7.36 156.331 7.44C156.506 7.456 156.945 7.496 157.647 7.56C158.348 7.624 159.025 7.712 159.676 7.824C160.328 7.936 160.879 8.072 161.33 8.232Z" fill="white"/>
</svg>
