<svg width="60" height="18" viewBox="0 0 60 18" fill="none" xmlns="http://www.w3.org/2000/svg">
<g clip-path="url(#clip0_1_23)">
<path d="M1.30667 17.1V15.804H6.45333C8.05333 15.804 9.43111 15.588 10.5867 15.156C11.7422 14.712 12.6311 14.094 13.2533 13.302C13.8756 12.51 14.1867 11.592 14.1867 10.548C14.1867 9.516 13.8756 8.616 13.2533 7.848C12.6311 7.08 11.7422 6.486 10.5867 6.066C9.44889 5.646 8.07111 5.436 6.45333 5.436H1.30667V4.14H6.45333C8.46222 4.14 10.2133 4.41 11.7067 4.95C13.2 5.478 14.3556 6.228 15.1733 7.2C16.0089 8.16 16.4267 9.288 16.4267 10.584C16.4267 11.88 16.0089 13.02 15.1733 14.004C14.3378 14.976 13.1733 15.738 11.68 16.29C10.2044 16.83 8.47111 17.1 6.48 17.1H1.30667ZM0 17.1V4.14H2.18667V17.1H0ZM25.3854 17.1V4.14H27.5721V17.1H25.3854ZM26.5054 17.1V15.804H38.2388V17.1H26.5054ZM26.5054 10.998V9.702H37.2788V10.998H26.5054ZM26.5054 5.436V4.14H38.0254V5.436H26.5054ZM31.9721 2.826L27.7054 0H30.9854L33.9988 2.826H31.9721ZM53.0848 17.262C50.8448 17.262 49.0581 16.89 47.7248 16.146C46.4092 15.402 45.6359 14.34 45.4048 12.96H47.5381C47.7337 13.956 48.2937 14.706 49.2181 15.21C50.1426 15.714 51.4226 15.966 53.0581 15.966C54.4448 15.966 55.4848 15.792 56.1781 15.444C56.8892 15.084 57.2448 14.562 57.2448 13.878C57.2448 13.29 57.0048 12.822 56.5248 12.474C56.0448 12.126 55.2981 11.838 54.2848 11.61L51.0581 10.854C49.4226 10.47 48.2137 10.008 47.4314 9.468C46.6492 8.916 46.2581 8.22 46.2581 7.38C46.2581 6.684 46.5159 6.084 47.0314 5.58C47.547 5.064 48.2759 4.662 49.2181 4.374C50.1603 4.086 51.2537 3.942 52.4981 3.942C54.4181 3.942 55.9559 4.284 57.1114 4.968C58.267 5.64 58.9337 6.6 59.1114 7.848H56.9781C56.747 6.948 56.267 6.288 55.5381 5.868C54.827 5.448 53.7959 5.238 52.4448 5.238C51.1648 5.238 50.1692 5.412 49.4581 5.76C48.747 6.108 48.3914 6.6 48.3914 7.236C48.3914 7.776 48.6403 8.208 49.1381 8.532C49.6359 8.856 50.4092 9.138 51.4581 9.378L54.8981 10.188C56.3914 10.536 57.5114 11.01 58.2581 11.61C59.0048 12.198 59.3781 12.948 59.3781 13.86C59.3781 14.94 58.827 15.78 57.7248 16.38C56.6403 16.968 55.0937 17.262 53.0848 17.262Z" fill="white"/>
</g>
<defs>
<clipPath id="clip0_1_23">
<rect width="60" height="18" fill="white"/>
</clipPath>
</defs>
</svg>
